<svg id="Layer_3" data-name="Layer 3" xmlns="http://www.w3.org/2000/svg" viewBox="0 0 1080 1080"><defs><style>.cls-1{fill:#f1f3d3;}.cls-2{fill:#333;}.cls-3{fill:#ff5f40;}.cls-14,.cls-15,.cls-16,.cls-17,.cls-18,.cls-19,.cls-20,.cls-21,.cls-22,.cls-4{fill:none;}.cls-5{fill:#ffcb74;}.cls-6{fill:#931a25;}.cls-7{fill:#4e0800;}.cls-8{fill:#ff414d;}.cls-9{fill:#ec0101;}.cls-10{opacity:0.4;}.cls-11{opacity:0.2;}.cls-12{fill:#ccc;}.cls-13{fill:blue;stroke:#0029ce;}.cls-13,.cls-14,.cls-15,.cls-16,.cls-17,.cls-18,.cls-19,.cls-20,.cls-21{stroke-linecap:round;opacity:0.99;isolation:isolate;}.cls-13,.cls-18,.cls-19{stroke-linejoin:round;}.cls-13,.cls-14,.cls-15,.cls-16,.cls-17,.cls-18,.cls-19,.cls-20,.cls-21,.cls-22{stroke-width:2px;}.cls-14{stroke:#009194;}.cls-15,.cls-19{stroke:#00abf6;}.cls-16{stroke:#abbc00;}.cls-17{stroke:#fff;}.cls-18,.cls-21{stroke:#f550a8;}.cls-20{stroke:#e67700;}.cls-22{stroke:#f1ffff;}</style></defs><title>tekek_logo</title><path class="cls-1" d="M852.77,464.68c-8.78,41.73-5.19,50-4.78,50.78-.31-.35-2.36-2.28-9.37-.44-23.63,6.21-260.19-9.69-414.94-31.4-41-5.74-76.18-11.91-100.21-18.15C208.64,435.58,186.95,319.68,186.95,319.68a11.09,11.09,0,0,0-2.35-2.71c-9.09-20.48-7.08-46.37-11.35-74.09-9.44-61.35,40.9-100.67,40.9-100.67C206.28,106,234.59,79.3,234.59,79.3s1.57-14.16,6.29-22S270.77,51,270.77,51a6.67,6.67,0,0,1,.93-.71c1.67-1.1,5.84-3.35,14.8-5.58,12.58-3.15,28.31-6.29,59.77,12.58s67.64,11,67.64,11,23.59-1.57,37.75-9.44c27.84-15.46,70.78-17.3,70.78-17.3s3.15-6.29,28.31,0,28.31,26.74,28.31,26.74,55.05,18.88,89.66,59.77a85.45,85.45,0,0,1,10.08,14.72,76.79,76.79,0,0,1,6.56,16.67c3.1,11.67,3.46,23.75,2.09,36.08A78.19,78.19,0,0,1,696.7,206c10.7,14.44,20.46,36.4,28.25,68.71.69,2.83,1.35,5.74,2,8.73,2.2,10.21,4.23,21.36,6.06,33.55.06.46.14.93.2,1.38a79.67,79.67,0,0,0,3.84,15.19A107.88,107.88,0,0,0,752.86,362c1.92,2.58,3.92,5.06,6,7.53,0,0,0,0,0,0a238.43,238.43,0,0,0,23.78,23.89c1.67,1.49,3.37,3,5,4.42C821,426.41,856.33,447.77,852.77,464.68Z"/><path d="M849.88,463.88c-2.85,13.7-5.74,27.83-5.95,41.88-.05,3.57-.22,7.92,1.47,11.2l4.71-3.64c-4.67-4.62-14.6-.6-20.38-.28-8.57.48-17.18.37-25.75.22-28.71-.49-57.4-2.12-86.05-3.93q-117.15-7.39-233.85-21c-42.73-5-85.51-10.53-127.77-18.69-18.49-3.57-37.08-7.47-54.62-14.48a172.17,172.17,0,0,1-44.75-26.3c-32.84-26.76-57.22-66.38-66.62-107.79a13.16,13.16,0,0,0-.77-2.92c-.87-1.77-2.35-2.93-3.22-4.82a47.05,47.05,0,0,1-2.39-7.34,117.32,117.32,0,0,1-3.1-16.64c-1.5-12.33-1.94-24.76-3.34-37.11-1.18-10.51-2.9-20.69-2.19-31.31,1.89-28.06,16.79-54.57,37.29-73.41,1.2-1.1,2.41-2.19,3.68-3.2a3,3,0,0,0,.77-2.92c-3.86-18.93,2.12-37.84,13.6-53,1.89-2.5,5.08-4.85,6.54-7.59.95-1.77.86-4.62,1.22-6.53.91-4.76,2-10.21,4.47-14.43,3.48-5.9,13.64-5.77,19.68-5.95,2.37-.07,4.76.13,7.12,0,2.08-.09,3.15-.9,5-1.92,11.93-6.67,28.3-8.28,41.4-4.95C327.59,50,337.47,56,347.82,61.61A94.21,94.21,0,0,0,380.35,71.9a112.42,112.42,0,0,0,25.42.53c2.42-.23,4.83-.52,7.23-.93.49-.08,1-.2,1.47-.27s-1.2.14.2,0a156,156,0,0,0,21.28-3.44C446,65.31,454.45,60.12,464,56.36c16.69-6.57,34.79-9.86,52.6-11.4a51.38,51.38,0,0,0,5.61-.4,7.33,7.33,0,0,0,2.36-.89c.86-.47.62-.61.29-.38,3.7-2.55,12.24-1.44,17.25-.55,14.45,2.58,31.42,10,34.07,26.34a3,3,0,0,0,2.1,2.1c17.87,6.16,35.06,15.58,50.7,26.06,14.34,9.6,27.94,20.92,38.83,34.39,13.91,17.2,18.79,38.45,17,60.22-.14,1.71-.77,3.61.05,5.21s2.82,2.9,4,4.14a83.34,83.34,0,0,1,8.32,10.71,133.73,133.73,0,0,1,9.94,18.2c7.86,17.21,12.95,35.7,17,54.14,4.07,18.71,4.88,38.66,12.58,56.35,7.56,17.38,20.11,32.3,33.58,45.41,16.33,15.91,34.65,29.48,52.31,43.84,6.91,5.62,13.87,11.36,19.83,18,3.71,4.14,8.57,10,7.51,16-.67,3.78,5.11,5.4,5.79,1.6,2.09-11.84-8.44-21.86-16.32-29.12-14.76-13.58-31.25-25.2-46.59-38.11-15.7-13.22-31-27.6-42.35-44.88a93.16,93.16,0,0,1-13-28.91c-2.39-9.87-3.34-20.14-5.24-30.12-3.74-19.74-8.61-39.43-16-58.12-5.62-14.11-12.7-28-23.08-39.25-1.79-1.94-2.39-2.46-2.26-5.1s.36-5.49.39-8.25a99.74,99.74,0,0,0-1-15.22,81.5,81.5,0,0,0-9.64-28.61c-9-15.88-23.11-28.83-37.48-39.79-18.9-14.42-40.67-26.81-63.23-34.59l2.1,2.1c-2-12.38-12.93-22.34-24-26.77-8.94-3.57-20.52-6.09-30.21-4.65-2.69.4-6.44,1.3-7.87,4l2.59-1.49a214.63,214.63,0,0,0-28.89,3.51,180.49,180.49,0,0,0-25,6.3c-8.27,2.78-15.6,7.2-23.65,10.39-10.45,4.14-21.35,5.1-32.31,6.76a108.31,108.31,0,0,1-37.89-.6c-11-2.24-20.53-6.65-30.19-12.16a112.8,112.8,0,0,0-25.08-11c-11.07-3.11-21.94-2.86-33-.12a75.82,75.82,0,0,0-11.53,3.69,33,33,0,0,0-3.22,1.51c-.42.23-.84.46-1.24.73-1.15.78-2.11.73-.59.77,2.26.06-2-.45-2.68-.46-2.83,0-5.67,0-8.49.23-5.74.42-12.42,1.08-17.27,4.5-5.43,3.83-7.12,12.35-8.4,18.42-.24,1.15-2.07,6.87-1.32,8-.08-.12,1.75-1.91.49-1.47-.33.12-.86.88-1.1,1.14a82.11,82.11,0,0,0-9.51,12.44c-9.81,15.56-14,33.77-10.26,51.92l.77-2.92c-15.91,12.49-28.38,31.13-35.71,49.75-7.09,18-8.37,36.68-5.68,55.72,3.23,22.85,1.45,47.54,9.89,69.37a19.77,19.77,0,0,0,3,5.2c1.66,2.22.35,0,.55.42a9.28,9.28,0,0,1,.24,1.17c.59,1.81.88,3.77,1.37,5.61a198.81,198.81,0,0,0,7,21.21,214.36,214.36,0,0,0,38.35,63.7A182.77,182.77,0,0,0,314.4,466c19.06,5.87,39,9.37,58.58,12.77C395.54,482.68,418.2,486,440.9,489,520.62,499.53,600.8,507,681,512.83c33,2.39,66,4.49,99.07,5.75,18.23.69,37.26,2.22,55.45,0,2.66-.33,8.73-2.59,10.35-1,2.48,2.45,6.25-.64,4.71-3.64.4.79-.21-.84-.36-1.67a43.93,43.93,0,0,1-.28-7.19c.31-13.31,3-26.61,5.72-39.6C856.45,461.71,850.67,460.1,849.88,463.88Z"/><rect class="cls-2" x="9.58" y="468.65" width="1060.84" height="572.6" rx="26.92" ry="26.92"/><circle class="cls-3" cx="555.48" cy="50.98" r="4.72"/><circle class="cls-3" cx="544.47" cy="49.41" r="6.29"/><circle class="cls-3" cx="530.31" cy="52.56" r="7.86"/><circle class="cls-3" cx="522.45" cy="65.14" r="6.29"/><circle class="cls-3" cx="245.6" cy="69.86" r="4.72"/><circle class="cls-3" cx="253.47" cy="63.57" r="7.86"/><circle class="cls-3" cx="267.63" cy="65.14" r="7.86"/><circle class="cls-3" cx="278.64" cy="73.01" r="6.29"/><circle class="cls-3" cx="284.93" cy="84.02" r="4.72"/><path class="cls-4" d="M184.25,299.88s13.38,93.23,106.19,157.72,486,53.48,511.22,33,33-58.2,18.88-72.36-40.9-26.74-55.05-42.47-33-53.48-47.19-56.63L687.72,195.82S177.16,228.67,184.25,299.88Z"/><path d="M268.4,55.45c6.39,1.53,12,7.35,15,13.33,3.94,8,4.16,17.42,3.12,26.09-1.5,12.46-5.53,25-10.75,36.39-6.06,13.23-14.18,26.06-24.79,36.14a21.57,21.57,0,0,1-1.93,1.75c1.33-1-.5.17-.94.38a51.75,51.75,0,0,1-10,3.71c-4.76,1.12-10.34,1.38-14.39-1.84-6.83-5.45-6.37-16.91-5.91-24.61.23-3.86-5.77-3.84-6,0C211,161,214,179.66,231.74,180c7,.13,15.92-2.33,21.57-6.63,10.36-7.88,18.38-21.06,24.3-32.31a143.11,143.11,0,0,0,13.52-37.65c2.15-10.45,3-21.74-.3-32.06-3-9.52-10.64-19.25-20.84-21.69-3.75-.9-5.35,4.89-1.6,5.79Z"/><ellipse class="cls-5" cx="250.32" cy="121.37" rx="50.2" ry="37.23" transform="translate(66.18 329.91) rotate(-74.42)"/><path d="M260.59,80c-2.33,2.18-3,2.14-4.05,5.23-.57,1.71-.91,1.31-2,2.56s-.73,1.8-1.14,3.33a14.51,14.51,0,0,1-1.44,3.19c-.13.19-1.35,1-1.85,1.61-2.34,2.84-2.07,4.68-1.32,7.83l.77-2.92q-1.34,1.3-2.66,2.62a3,3,0,0,0-.77,2.92c.26.77.81,1.47,1.06,2.19l.77-2.92c-1.74,1.91-2.18,2.71-2,5.32l1.49-2.59c-1.35,1-2.79,1.19-3.41,2.94a7.35,7.35,0,0,0,0,2.61c0,.68-.16,2.27.18,1.06-.45,1.6-2,3-2.4,4.61a10.15,10.15,0,0,0,.58,5.18l.77-2.92c-1.72,1.94-2.28,2.13-2.33,4.83,0,2.18.44,3.89-.61,5.82a3,3,0,0,0,0,3c.5.66,1.28,1.17,1.74,1.76v-3c-.74,1.37-2,3.29-1.86,4.92.15,1.89,1.48,2.44,2.52,3.76l-.77-2.92c-.59,1.92-.34,2.6,0,4.44a16.87,16.87,0,0,1-.34,4.92c-.5,3.82,5.5,3.78,6,0,.15-1.16.46-2.35.53-3.52a15.29,15.29,0,0,0-.73-3.7,4.35,4.35,0,0,0,.2-2.5c-.42-1.16-1.55-1.68-2.26-2.6l.77,2.92a15.37,15.37,0,0,1,1.15-2.69,3,3,0,0,0,0-3c-.5-.64-1.29-1.17-1.74-1.76v3c2-3.72,1.85-6.8,1.14-10.89l-.77,2.92c.83-1,2-1.46,2.41-2.79s-.54-2.71-.26-4,1.69-2.49,2.11-3.82c.48-1.5,0-3.25-.13-4.8l-1.49,2.59c1-.78,2.42-1,3.11-2.23a7.94,7.94,0,0,0,.41-1.51c.83-2.43-1.66,1,.2-1.07a3,3,0,0,0,.77-2.92c-.26-.77-.81-1.47-1.06-2.19l-.77,2.92c1.09-1.09,3-2.4,3.43-3.94a5.86,5.86,0,0,0-.16-2.28q-.36-1.47-.51.07a2,2,0,0,0,.53-1.16c2.8-2.46,5.11-6.15,4.93-10.24l-1.49,2.59c2.2-1.44,3.69-2.11,4.31-5.06q.17-.89.35-1.79-.92.84.41,0c.56-.59,1.31-1,1.91-1.61,2.82-2.65-1.43-6.88-4.24-4.24Z"/><path d="M576.18,69.09q3.26,18.63,6.56,37.25,2.52,14.27,5.08,28.53c1.45,8.07,4.18,17.06,3.8,25.27a9,9,0,0,1-2.41,6.25,10.44,10.44,0,0,0-1.45,1.71c-.21.38-.31.82-.5,1.21-.65,1.38-.26.68,0,.52-3.62,2.63-10.74,1.26-14.63.39a42.89,42.89,0,0,1-14.55-6c-20.49-13.64-33.05-39.43-38.29-62.73-3.17-14.12-4-29.11-.57-43.27,1.24-5.15,2.9-10.65,5.87-15.11,2.15-3.22-3-6.23-5.18-3-9.71,14.58-10.08,35.9-7.8,52.45,3.7,26.8,16.18,55,37.3,72.62,8.66,7.23,19.46,12,30.91,12,3.57,0,8.47-.37,11.18-3.07,1.2-1.2.89-2.28,1.64-3.54-.63,1.07.33.09.74-.26,6.26-5.27,3.51-16.47,2.28-23.15-1.68-9.13-3.31-18.27-4.93-27.41Q586.53,93.61,582,67.49c-.66-3.8-6.45-2.19-5.79,1.6Z"/><path class="cls-6" d="M616.83,225.58c-4.48,35.86-36.9,79.15-82.41,112.69h0c-39.75,29.27-89.5,51.12-139.37,54-34.2,2-64.22-13-89.23-34.42-42.82-36.6-71-91.81-80.35-112-2.28-4.91-3.44-7.74-3.44-7.74,0-9.44,17.3-20.45,18.88-22,11.37-11.37,54.74-16.55,108.24-18.51q7.74-.28,15.75-.47c20.7-.52,42.53-.61,64.35-.46,11.14.08,22.26.22,33.22.42,24.51.42,48.23,1.07,69.45,1.71,41.62,1.26,63.77,3.79,75.27,7.17C624.36,211.07,617.77,218,616.83,225.58Z"/><path class="cls-7" d="M616.83,225.58c-4.48,35.86-36.9,79.15-82.41,112.69a58,58,0,0,1,2.19-8.87s4.72-12.58-11-47.19C515.51,260,488,243.69,466.23,231.89l0,0c-4.17-2.25-8.13-4.34-11.72-6.28l0,0a64.46,64.46,0,0,0-11.64-6.69c-28.11-12.51-62.09-4.48-80.32,1.64-6.76,16.77-27,57.24-31.18,65.61-4.72,9.44-12.58,33-3.15,44s18.88,14.16,15.73,20.45c-1.89,3.76-19,9.22-38.11,7.27-42.82-36.6-71-91.81-80.35-112-2.28-4.91-3.44-7.74-3.44-7.74,0-9.44,17.3-20.45,18.88-22,11.37-11.37,54.74-16.55,108.24-18.51l4.5-.16,5.6-.17,5.65-.14c20.7-.52,42.53-.61,64.35-.46q6.75,0,13.5.13c3.84,0,7.68.09,11.48.16l8.24.14c24.51.42,48.23,1.07,69.45,1.71,41.62,1.26,63.77,3.79,75.27,7.17C624.36,211.07,617.77,218,616.83,225.58Z"/><path class="cls-7" d="M454.46,225.58c-4.61-2.49-8.6-4.7-11.64-6.69A64.46,64.46,0,0,1,454.46,225.58Z"/><path class="cls-8" d="M616.83,225.58C608.43,292.77,502,386,395,392.32c-92.74,5.46-154.75-114.45-169.58-146.41,7.09,4.22,17.41,12.95,27.23,30.8,17.3,31.46,40.9,45.62,50.34,53.48s26.74,18.88,36.18,15.73S463.46,355.36,520.09,327a534.59,534.59,0,0,0,49.41-27.92c1.7-1.1,10-1.93,13.51-16.12,5.1-20.67-6.29-31.46,15.73-69.21.83-1.42,4.39-4.67,8.42-7.77C624.36,211.07,617.77,218,616.83,225.58Z"/><path class="cls-9" d="M395.82,333.33s-33-22-47.19-3.15-6.29,34.61-3.15,37.75,4.72,7.86,17.3,6.29,24.35,1.16,31.46,4.72c9.44,4.72,29.89-7.86,34.61-12.58s17.3-12.58,26.74-15.73,20.45-6.29,6.29-14.16-19.76-14.5-48.76,0C410,338.05,400.54,336.48,395.82,333.33Z"/><path class="cls-7" d="M466.21,231.88c-2.71-.53-6.51-2.5-11.72-6.28C458.08,227.54,462,229.63,466.21,231.88Z"/><ellipse class="cls-3" cx="228.56" cy="377.38" rx="7.6" ry="3.41"/><ellipse class="cls-3" cx="255.83" cy="398.09" rx="13.37" ry="4.72"/><ellipse class="cls-3" cx="279.42" cy="415.39" rx="12.85" ry="5.24"/><ellipse class="cls-3" cx="315.34" cy="429.81" rx="16.78" ry="4.46"/><ellipse class="cls-3" cx="365.94" cy="433.48" rx="14.42" ry="3.93"/><ellipse class="cls-3" cx="405.79" cy="433.22" rx="9.18" ry="4.19"/><ellipse class="cls-3" cx="437.51" cy="433.74" rx="15.31" ry="3.12"/><ellipse class="cls-3" cx="483.91" cy="431.64" rx="10.75" ry="4.19"/><ellipse class="cls-3" cx="522.19" cy="419.32" rx="14.57" ry="5.98"/><ellipse class="cls-3" cx="563.34" cy="386.29" rx="18.43" ry="4.42" transform="translate(-108.15 511.49) rotate(-45)"/><ellipse class="cls-3" cx="608.44" cy="359.55" rx="15.74" ry="5.95" transform="translate(-76.03 535.54) rotate(-45)"/><ellipse class="cls-3" cx="643.57" cy="329.4" rx="14.07" ry="6.61" transform="translate(-44.43 551.55) rotate(-45)"/><ellipse class="cls-3" cx="673.72" cy="295.32" rx="12.35" ry="5.51" transform="translate(-11.5 562.89) rotate(-45)"/><ellipse class="cls-3" cx="693.77" cy="258.35" rx="5.93" ry="10.55"/><ellipse class="cls-3" cx="696.52" cy="319.96" rx="6.5" ry="13.85"/><ellipse class="cls-3" cx="662.7" cy="361.91" rx="11.68" ry="4.26" transform="translate(-61.81 574.6) rotate(-45)"/><ellipse class="cls-3" cx="631.77" cy="388.65" rx="12.33" ry="5.78" transform="translate(-89.78 560.56) rotate(-45)"/><ellipse class="cls-3" cx="588.25" cy="407.26" rx="15.47" ry="9.18"/><ellipse class="cls-3" cx="560.72" cy="433.48" rx="10.98" ry="3.69" transform="translate(-142.28 523.45) rotate(-45)"/><ellipse class="cls-3" cx="650.12" cy="407.53" rx="15.81" ry="7.16" transform="translate(-97.75 579.07) rotate(-45)"/><ellipse class="cls-3" cx="682.89" cy="388.13" rx="13.9" ry="5.56" transform="translate(-74.43 596.56) rotate(-45)"/><ellipse class="cls-3" cx="706.75" cy="362.43" rx="16.45" ry="7.84" transform="translate(-49.28 605.9) rotate(-45)"/><ellipse class="cls-3" cx="724.84" cy="386.81" rx="13.72" ry="5.75" transform="translate(-61.22 625.83) rotate(-45)"/><ellipse class="cls-3" cx="688.13" cy="416.7" rx="11.32" ry="7.54" transform="translate(-93.1 608.63) rotate(-45)"/><ellipse class="cls-3" cx="731.92" cy="415.13" rx="11.42" ry="4.8" transform="translate(-79.17 639.13) rotate(-45)"/><ellipse class="cls-3" cx="759.18" cy="425.09" rx="12.42" ry="8.16" transform="translate(-78.23 661.33) rotate(-45)"/><ellipse class="cls-3" cx="762.06" cy="401.5" rx="5.4" ry="13.39" transform="translate(-60.7 656.46) rotate(-45)"/><ellipse class="cls-3" cx="800.6" cy="426.4" rx="5.54" ry="14.1" transform="translate(-67.02 691) rotate(-45)"/><ellipse class="cls-3" cx="782.51" cy="441.87" rx="19.46" ry="5.79"/><path class="cls-3" d="M282.3,434.79c0,3.4-5.35,6.26-12.6,7.09a169.31,169.31,0,0,1-16.53-12.27,31.39,31.39,0,0,1,12.1-2.17C274.67,427.44,282.3,430.73,282.3,434.79Z"/><path class="cls-3" d="M235.65,391.8c0,2.55-5.4,4.72-12.85,5.47-2.78-3.74-5.35-7.5-7.72-11.22.64,0,1.29,0,2,0C227.31,386,235.65,388.61,235.65,391.8Z"/><path class="cls-3" d="M727,283.45a15,15,0,0,1-2.34,3c-3.68,3.7-8.46,4.91-10.66,2.71s-1-7,2.71-10.68c2.66-2.66,5.87-4,8.29-3.76C725.64,277.56,726.3,280.47,727,283.45Z"/><path class="cls-3" d="M737.06,333.58a9.34,9.34,0,0,1-5.93,2.11A9.44,9.44,0,1,1,733,317c.06.46.14.93.2,1.38A79.67,79.67,0,0,0,737.06,333.58Z"/><path class="cls-3" d="M758.94,370.82c0,5.21-2,9.42-4.48,9.42S750,376,750,370.82c0-4,1.2-7.44,2.88-8.79,1.92,2.58,3.92,5.06,6,7.53,0,0,0,0,0,0C758.93,370,758.94,370.41,758.94,370.82Z"/><path class="cls-3" d="M787.76,398.61c0,4.34-1.29,7.86-2.89,7.86S782,403,782,398.61a16.89,16.89,0,0,1,.71-5.13c1.67,1.49,3.37,3,5,4.42C787.76,398.14,787.76,398.38,787.76,398.61Z"/><path class="cls-10" d="M468,468.65H336.75q-7.11-1.59-13.28-3.18a181.78,181.78,0,0,1-53.78-23.59,172.41,172.41,0,0,1-16.53-12.28,185.81,185.81,0,0,1-30.37-32.33c-2.78-3.75-5.35-7.5-7.72-11.22-22.19-34.59-28.13-66.38-28.13-66.38q1.29-2.75,2.64-5.38c11,24.82,31.07,45.61,73.33,65.45C340,415.91,341.55,422.21,395,422.21s83.36,3.14,111.68-18.88,146.29-88.08,162-136.85c7.74-24,16.21-47.91,18.74-70.92A74.83,74.83,0,0,1,696.7,206C705.07,335.32,589.47,422.59,468,468.65Z"/><path class="cls-1" d="M645.4,497.76a17.89,17.89,0,0,1-.69,4v0c-4.29,14.42-26.65,6.71-44.44-3.5-3.78-2.16-7.35-4.44-10.51-6.65-25.7-18-30.84-51.41-15.42-72,4.32-5.76,10.87-5.27,18-1.57,5.12,2.64,10.56,6.91,15.75,11.69a219.29,219.29,0,0,1,20.52,22.28c3,3.71,4.8,6.15,4.8,6.15C642.58,477.12,645.92,489.74,645.4,497.76Z"/><path d="M643.9,497.76c-2,20.16-30.43,6.07-40.17.76-15.63-8.52-29.22-19.71-34.45-37.37a49.52,49.52,0,0,1-1.43-22.49c1.16-6.59,4.23-16.78,10.32-20.55,9.43-5.84,23.39,7.62,29.55,13.36a207.8,207.8,0,0,1,18.7,20.24c2.36,2.87,5,5.67,6.57,9a167.42,167.42,0,0,1,6.7,15.9c2.4,6.72,4.56,13.91,4.21,21.12-.09,1.93,2.91,1.92,3,0,.38-7.71-2-15.44-4.56-22.6-1.86-5.12-4-10.14-6.35-15.07-1.76-3.76-4.41-6.79-7-10-7.51-9.19-15.57-18.17-24.77-25.71-6.53-5.35-17-13.45-26-9.62-6.94,2.94-10.67,12.8-12.43,19.57a51.69,51.69,0,0,0-.14,24.55c4.75,20.44,20.17,33.52,38,43,12.25,6.49,41,18.92,43.32-4.08C647.09,495.84,644.09,495.85,643.9,497.76Z"/><path class="cls-11" d="M644.71,501.77v0c-4.29,14.42-26.65,6.71-44.44-3.5-.08-.49-.15-1-.23-1.52,0,0-12.85-23.13-15.42-38.55s5.14-25.7,12.85-18,38.55,37.7,42.41,51A52.14,52.14,0,0,0,644.71,501.77Z"/><path class="cls-12" d="M1070.42,486.71v29.5H9.58v-29.5c0-10,12.06-18.06,26.92-18.06h1007C1058.36,468.65,1070.42,476.74,1070.42,486.71Z"/><path class="cls-10" d="M682.35,538.26c-10.7,6.42-19.26-4.28-27.81-34.23-4.6-16.09-4.26-27.86-3-35.3h47.26a175.92,175.92,0,0,0,.62,28.88C701.6,521.14,693,531.84,682.35,538.26Z"/><path class="cls-1" d="M666.87,558.47c-3.27,2-6.37,2.6-9.37,1.83-3.95-1-7.66-4.36-11.25-10.25-4.4-7.16-8.6-18-12.8-32.7A123.41,123.41,0,0,1,630,501.42a96,96,0,0,1-1-11c-.63-18,4.51-27,4.51-27,13.34-21.67,32.08-13.07,43.6-4.34a74.77,74.77,0,0,1,8.29,7.29c1.35,1.35,2.08,2.19,2.08,2.19s-2.57,12.85,0,41.12S679.72,550.75,666.87,558.47Z"/><path d="M666.11,557.17c-12.68,6.85-19.93-9.05-23.9-18.6a165.87,165.87,0,0,1-10.26-34.25c-2.7-15.18-4-35.7,8.42-47.28,7.13-6.67,16.39-7,25-3.26a51.05,51.05,0,0,1,9.23,5.32,71.63,71.63,0,0,1,6.77,5.49c.84.77,1.65,1.56,2.46,2.36s2.39,3.61,2.11,1.17c.31,2.71-.78,6.23-.94,9a206.88,206.88,0,0,0,.43,26.83c.86,12,1.93,24.23-3.1,35.56-3.39,7.62-9.2,13.37-16.24,17.68-1.64,1-.14,3.6,1.51,2.59,17.41-10.65,22.82-28.67,21.44-48.35-.8-11.44-1.71-22.83-1-34.31.2-3.52,1.91-7.9-.49-10.68-10.77-12.49-31.79-25.24-47.23-13.25-14.86,11.53-14.26,33.56-11.54,50.29a151.67,151.67,0,0,0,13.45,42.39c5.06,10.16,13.27,20.46,25.4,13.91C669.32,558.85,667.81,556.26,666.11,557.17Z"/><path class="cls-10" d="M795.32,538.63c0,22.75-34.13,25.6-48.35,22.75s-25.6-28.44-31.28-48.35c-4-14-2.36-33.67-1.05-44.08h80.91C799.56,489.55,795.32,521.31,795.32,538.63Z"/><path class="cls-1" d="M766.26,518.94v0q-.11,1.91-.22,3.77c-.36,6.16-.7,11.83-.75,16.5,0,.43,0,.84,0,1.26,0,7-3.57,11.9-8.8,15.24-10.12,6.46-26.44,7-34.91,5.31a13.64,13.64,0,0,1-3.72-1.35c-3.72-1.9-7.16-5.46-10.3-9.94-6.21-9-11.16-21.59-14.25-32.4a63.87,63.87,0,0,1-2.08-13.26c-.07-1.31-.13-2.62-.16-3.91a163.2,163.2,0,0,1,2.24-29.08c28.27-51.41,54-20.57,66.27-7.4a22.06,22.06,0,0,1,4.52,8.35,55.85,55.85,0,0,1,2.17,10.55C767.57,493.58,767,506.92,766.26,518.94Z"/><path d="M764.76,518.94c0,5.77-.73,11.59-.9,17.37-.19,6.19-.44,11.54-5.33,16-7.75,7.06-20.28,8.46-30.31,8-5.77-.27-10.39-1.49-14.68-5.68-4.56-4.45-7.82-10.17-10.59-15.85-5.59-11.45-9.79-23.85-10.34-36.64a138.6,138.6,0,0,1,.54-18.24c.34-3.84.39-8.36,1.53-12.07,1.56-5.1,6.63-11.12,10-15.13a42.51,42.51,0,0,1,10.57-9.39c12.27-7.27,24.54-.86,33.93,7.86,6.06,5.64,12,11.49,14.15,19.73,3.67,14.12,2.25,29.67,1.42,44.07-.11,1.93,2.89,1.92,3,0,.83-14.45,2.11-29.81-1.31-44-2.13-8.83-7.65-14.69-14-20.79-9.83-9.46-22.92-17.17-36.52-10.6-10.06,4.85-17.09,14.92-22.52,24.29-1.84,3.18-2.11,6-2.57,9.64a151.67,151.67,0,0,0-1.3,22.71c.34,13.82,4.51,27,10.45,39.37,4.77,10,11.63,21.7,23.57,23.34,11.6,1.59,26.34.15,35.8-7.38A19,19,0,0,0,766.71,542c.59-7.54,1-15.45,1-23A1.5,1.5,0,0,0,764.76,518.94Z"/><path class="cls-10" d="M832.09,499.34c0,27.45-13.73,38.89-27.45,34.32s-16.59-30.93-16.59-30.93.55-16.4.57-34.27h42C833,474.43,832.09,481.68,832.09,499.34Z"/><path class="cls-1" d="M816.66,509.63c0,9.41-1.44,17.14-3.88,23.19-2.5,6.26-6.07,10.73-10.21,13.43a19,19,0,0,1-16.75,1.94c-15.42-5.13-18.65-34.75-18.65-34.75s.66-19.22.66-39.78,25.7-23.14,38.56-10.29S816.66,478.79,816.66,509.63Z"/><path d="M815.16,509.63C815,520.49,813.5,533,805.9,541.4c-7.06,7.82-19.21,8.61-26.42.66-6.4-7.06-10.29-19.1-10.81-28.62-.31-5.78.33-11.76.44-17.54q.15-8.16.2-16.32c0-4.93-.43-10.07,2.09-14.53,3.69-6.55,11.69-8.68,18.74-7.84,7.51.89,13.29,4.92,18.24,10.41,10.26,11.38,6.8,27.88,6.78,42a1.5,1.5,0,0,0,3,0c0-14.46,3.39-31.28-6.78-43.15-9.23-10.76-27.36-18.4-39.4-7-7.49,7.1-5.61,18.37-5.72,27.68-.11,8.65-1.07,17.57-.58,26.2.63,10.95,5,25.11,13.4,32.51,7.91,7,20,6.12,27.55-.93,9.41-8.78,11.41-23.14,11.54-35.33A1.5,1.5,0,0,0,815.16,509.63Z"/><ellipse class="cls-3" cx="310.62" cy="75.1" rx="6.7" ry="10.75"/><circle class="cls-3" cx="301.71" cy="117.84" r="8.13"/><ellipse class="cls-3" cx="201.3" cy="171.32" rx="5.73" ry="1.65" transform="translate(-62.18 192.52) rotate(-45)"/><ellipse class="cls-3" cx="188.19" cy="222.96" rx="6.03" ry="16.25"/><ellipse class="cls-3" cx="212.57" cy="310.79" rx="9.9" ry="29.68" transform="matrix(0.87, -0.5, 0.5, 0.87, -126.91, 147.92)"/><ellipse class="cls-3" cx="219.91" cy="268.58" rx="4.96" ry="11.85" transform="translate(-125.5 234.17) rotate(-45)"/><ellipse class="cls-3" cx="269.98" cy="353" rx="6.49" ry="11.04" transform="translate(-170.53 294.3) rotate(-45)"/><ellipse class="cls-3" cx="317.44" cy="381.83" rx="6.49" ry="11.24" transform="translate(-135.62 585.07) rotate(-74.42)"/><ellipse class="cls-3" cx="362" cy="397.04" rx="4.1" ry="10.57" transform="translate(-117.67 639.12) rotate(-74.42)"/><ellipse class="cls-3" cx="403.95" cy="402.54" rx="9.44" ry="3.93"/><ellipse class="cls-3" cx="435.93" cy="396.51" rx="12.06" ry="4.72" transform="translate(-57.62 74.54) rotate(-9.17)"/><ellipse class="cls-3" cx="487.32" cy="388.39" rx="15.19" ry="5.56" transform="translate(-95.53 167.92) rotate(-17.83)"/><ellipse class="cls-3" cx="544.21" cy="345.13" rx="21.61" ry="8.96" transform="translate(-84.65 485.9) rotate(-45)"/><ellipse class="cls-3" cx="594.28" cy="307.12" rx="17.8" ry="8.53" transform="translate(-43.1 510.17) rotate(-45)"/><ellipse class="cls-3" cx="622.59" cy="246.56" rx="5.24" ry="8.39"/><ellipse class="cls-3" cx="638.59" cy="270.94" rx="29.01" ry="12.46" transform="translate(-4.55 530.9) rotate(-45)"/><ellipse class="cls-3" cx="660.61" cy="200.42" rx="9.26" ry="22.84"/><ellipse class="cls-3" cx="630.72" cy="154.8" rx="6.18" ry="10.57" transform="translate(-9.12 266.04) rotate(-23.65)"/><ellipse class="cls-3" cx="618.66" cy="123.34" rx="4.63" ry="12.23" transform="translate(93.99 473.59) rotate(-45)"/><ellipse class="cls-3" cx="609.75" cy="182.59" rx="5.14" ry="11.86" transform="translate(-9.6 329.34) rotate(-30)"/><ellipse class="cls-3" cx="245.34" cy="199.37" rx="10.22" ry="6.82" transform="translate(-49.27 84.72) rotate(-17.83)"/><ellipse class="cls-3" cx="218.86" cy="174.99" rx="4.46" ry="9.44"/><ellipse class="cls-3" cx="581.7" cy="180.75" rx="3.67" ry="9.18" transform="translate(16.75 408.52) rotate(-39.22)"/><ellipse class="cls-3" cx="499.11" cy="55.97" rx="9.7" ry="2.88"/><ellipse class="cls-3" cx="472.64" cy="65.67" rx="13.11" ry="4.72"/><ellipse class="cls-3" cx="322.42" cy="57.28" rx="8.65" ry="2.62"/><ellipse class="cls-3" cx="351.78" cy="70.12" rx="9.2" ry="3.4"/><ellipse class="cls-3" cx="382.45" cy="79.04" rx="8.39" ry="3.41"/><ellipse class="cls-3" cx="428.86" cy="78.51" rx="10.75" ry="2.88"/><ellipse class="cls-3" cx="360.96" cy="106.96" rx="12.58" ry="4.33"/><ellipse class="cls-3" cx="332.64" cy="136.71" rx="12.75" ry="5.73" transform="translate(0.76 275.26) rotate(-45)"/><ellipse class="cls-3" cx="215.97" cy="212.1" rx="12.75" ry="5.73" transform="translate(-86.72 214.84) rotate(-45)"/><ellipse class="cls-3" cx="303.8" cy="167.12" rx="18.17" ry="7.76" transform="translate(-29.19 263.77) rotate(-45)"/><ellipse class="cls-3" cx="343.65" cy="172.1" rx="17.75" ry="8.43" transform="translate(-21.04 293.41) rotate(-45)"/><ellipse class="cls-3" cx="370.39" cy="132.52" rx="11.49" ry="5.56" transform="translate(14.78 300.72) rotate(-45)"/><ellipse class="cls-3" cx="410.77" cy="119.93" rx="6.82" ry="10.75"/><ellipse class="cls-3" cx="425.23" cy="157.68" rx="7.11" ry="14.3" transform="translate(13.05 346.87) rotate(-45)"/><ellipse class="cls-3" cx="452.71" cy="181.8" rx="11.54" ry="4.98"/><ellipse class="cls-3" cx="456.38" cy="142.48" rx="4.85" ry="13.4" transform="translate(32.92 364.44) rotate(-45)"/><ellipse class="cls-3" cx="501.47" cy="150.87" rx="5.76" ry="14.15" transform="translate(139.32 529.13) rotate(-62.99)"/><ellipse class="cls-3" cx="509.6" cy="174.46" rx="5.07" ry="18.72" transform="translate(176.01 597.37) rotate(-70.63)"/><ellipse class="cls-3" cx="477.88" cy="114.17" rx="5.81" ry="13.68" transform="translate(59.24 371.35) rotate(-45)"/><path class="cls-3" d="M521.54,392.87c-6.13,4.12-11.2,7.64-14.82,10.46-1.34,1-2.67,2-4,2.94a11.94,11.94,0,1,1,18.83-13.4Z"/><path class="cls-3" d="M580.44,353.48c-4.29,3-8.59,5.95-12.8,8.81a7.82,7.82,0,1,1,12.8-8.81Z"/><path class="cls-3" d="M630.94,314.47q-5.57,4.93-11.58,9.85a7.49,7.49,0,0,1-2-5.14,7.62,7.62,0,0,1,13.59-4.7Z"/><path class="cls-3" d="M606.82,334.23c-2.41,1.86-4.86,3.7-7.31,5.52-4.31-4.39-6.37-9.31-4.62-11.06s6.83.38,11.28,4.83Q606.52,333.88,606.82,334.23Z"/><path class="cls-3" d="M679.23,233.53c-1.32,4.5-2.74,9-4.18,13.54-.27,0-.53,0-.8,0-6.81,0-12.32-3.18-12.32-7.08s5.51-7.08,12.32-7.08A20.83,20.83,0,0,1,679.23,233.53Z"/><path class="cls-3" d="M685.38,159.46a22,22,0,0,1-5.11.58c-7.82,0-14.16-3.87-14.16-8.65,0-4.47,5.57-8.16,12.71-8.6A76.79,76.79,0,0,1,685.38,159.46Z"/><path class="cls-3" d="M261.85,366.63c0,4.5-1.76,8.42-4.39,10.48q-6.61-3.26-12.44-6.56a16.59,16.59,0,0,1-.47-3.92c0-6.67,3.89-12.06,8.65-12.06S261.85,360,261.85,366.63Z"/><path class="cls-3" d="M296.17,390.87a10.93,10.93,0,0,1-.87,4.36l-10.59-5.11c.27-4.2,2.71-7.47,5.71-7.47C293.61,382.65,296.17,386.33,296.17,390.87Z"/><path class="cls-3" d="M336.47,412.25a15.81,15.81,0,0,1-.09,1.75c-3.76-1.42-7.69-3.05-12-5,.79-4.31,3.11-7.44,5.88-7.44C333.71,401.6,336.47,406.37,336.47,412.25Z"/><path class="cls-3" d="M386.65,419.06a10.06,10.06,0,0,1-.47,3.08h0c-2.83,0-5.49-.13-8-.24a9.65,9.65,0,0,1-.41-2.85c0-3.76,2-6.81,4.45-6.81S386.65,415.3,386.65,419.06Z"/><path class="cls-3" d="M439.35,417A7.24,7.24,0,0,1,437,422.3q-4.84.07-10,.06a7.24,7.24,0,0,1-2.39-5.4,7.35,7.35,0,1,1,14.69,0Z"/><path class="cls-3" d="M477.35,416.43a4.75,4.75,0,0,1-.25,1.56,117.55,117.55,0,0,1-18.61,3.24h0a6.21,6.21,0,0,1-2.61-4.8c0-4,4.81-7.33,10.74-7.33S477.35,412.39,477.35,416.43Z"/><g id="layer3"><path id="path4786" class="cls-13" d="M254.22,547.37h22.27"/><path id="path4788" class="cls-14" d="M285.44,547.17H387.58"/><path id="path4790" class="cls-14" d="M413.08,547.08h94"/><path id="path4786-3" class="cls-13" d="M255.09,560.43h22.27"/><path id="path4788-6" class="cls-14" d="M286.32,560.23H388.46"/><path id="path4790-7" class="cls-15" d="M413.1,560.14h30.4"/><path id="path4813" class="cls-16" d="M242.37,535.33h71.26"/><path id="path4815" class="cls-17" d="M321.47,535.37h5.15"/><path id="path4817" class="cls-17" d="M339.48,535.35h2"/><path id="path4817-5" class="cls-17" d="M241.71,572.21h2"/><path id="path4813-3" class="cls-16" d="M243.52,585.66h50.29"/><path id="path4817-5-5" class="cls-17" d="M299.37,585.5H300"/><path id="path4813-3-6" class="cls-14" d="M307.36,585.34h24.36"/><path id="path4817-5-5-2" class="cls-17" d="M340.78,585.18h.67"/><path id="path4817-5-5-2-9" class="cls-17" d="M353,585.34h.67"/><path id="path4813-3-6-1" class="cls-14" d="M282,598.16h24.36"/><path id="path4813-3-6-1-2" class="cls-14" d="M321.54,597.68h17.35"/><path id="path4817-5-5-2-9-7" class="cls-15" d="M356.32,597.78h7.41"/><path id="path4813-3-6-1-2-0" class="cls-15" d="M383.32,598.48h25.07"/><path id="path4786-9" class="cls-13" d="M265.89,610.8h22.27"/><path id="path4786-9-3" class="cls-13" d="M265.46,623.26h22.27"/><path id="path4786-9-3-6" class="cls-18" d="M265.26,635.7h32.21"/><path id="path4788-6-0" class="cls-14" d="M299.83,610.8H402"/><path id="path4788-6-0-6" class="cls-14" d="M301.54,621.9H403.68"/><path id="path4788-6-0-6-2" class="cls-14" d="M373.7,635.49H475.85"/><path id="path4786-9-3-61" class="cls-19" d="M338.69,635.49H361"/><path id="path4817-5-5-2-9-8" class="cls-17" d="M254.42,1020.61h.67"/><path id="path4788-6-0-6-7" class="cls-14" d="M293,672.64H395.12"/><path id="path4788-6-0-6-7-9" class="cls-14" d="M293.19,685.1H395.33"/><path id="path4788-6-0-6-7-9-2-0-2-3-7-5-9" class="cls-14" d="M312.26,936H414.4"/><path id="path4788-6-0-6-7-9-2-0-2-3-7-5-9-2" class="cls-14" d="M288,997H390.19"/><path id="path4788-6-0-6-7-9-2-0-2-3-7-5-9-2-2" class="cls-14" d="M287.41,985.72H389.55"/><path id="path4786-9-3-6-8" class="cls-19" d="M300.75,1010H333"/><path id="path4786-9-3-6-9" class="cls-18" d="M254.28,1009.73h32.21"/><path id="path4786-9-3-7" class="cls-13" d="M253.25,984.81h22.27"/><path id="path4786-9-3-7-3" class="cls-13" d="M253.25,996.82h22.27"/><path id="path4786-9-3-7-3-6" class="cls-13" d="M267.17,884.68h22.27"/><path id="path4786-9-3-7-3-6-1" class="cls-13" d="M267.75,860H290"/><path id="path4786-9-3-7-3-6-1-2" class="cls-13" d="M268,835.63h22.27"/><path id="path4786-9-3-7-3-6-1-2-9" class="cls-13" d="M267.82,809.6h22.27"/><path id="path4786-9-3-7-3-6-1-2-9-3" class="cls-13" d="M267.29,784.37h22.27"/><path id="path4786-9-3-7-3-6-1-2-9-3-1" class="cls-13" d="M266.16,759.63h22.27"/><path id="path4790-9" class="cls-14" d="M469.65,621.44h94"/><path id="path4790-9-4" class="cls-14" d="M471.79,685.33h94"/><path id="path4790-7-7" class="cls-15" d="M422.21,621.44h30.4"/><path id="path4790-7-7-8" class="cls-15" d="M422.64,609.66H453"/><path id="path4790-7-7-8-4" class="cls-14" d="M466.75,609.89h30.4"/><path id="path4790-7-7-8-5" class="cls-15" d="M428,672.42h30.4"/><path id="path4790-7-7-8-5-0" class="cls-14" d="M470.61,671.51H501"/><path id="path4790-7-7-3" class="cls-15" d="M428,684.65h30.4"/><path id="path4817-5-5-2-9-7-6" class="cls-17" d="M307.38,742.82h7.41"/><path id="path4817-5-5-2-9-7-6-1" class="cls-17" d="M402.87,771.87h7.41"/><path id="path4817-5-5-2-9-7-6-1-0" class="cls-17" d="M402,797.69h7.41"/><path id="path4817-5-5-2-9-7-6-1-0-6" class="cls-17" d="M402,822.16h7.41"/><path id="path4817-5-5-2-9-7-6-1-0-6-3" class="cls-17" d="M402.84,848.12h7.41"/><path id="path4817-5-5-2-9-7-6-1-0-6-3-2" class="cls-17" d="M402.82,873h7.41"/><path id="path4786-9-0" class="cls-13" d="M253.82,673h22.27"/><path id="path4786-9-0-6" class="cls-13" d="M253.51,685.14h22.27"/><path id="path4786-9-3-7-3-6-15" class="cls-13" d="M253.25,921.84h22.27"/><path id="path4788-6-0-6-7-9-5" class="cls-14" d="M299.83,759.63H402"/><path id="path4788-6-0-6-7-9-5-4" class="cls-14" d="M299.83,783.65H402"/><path id="path4788-6-0-6-7-9-5-4-7" class="cls-14" d="M300.26,809.47H402.4"/><path id="path4788-6-0-6-7-9-5-4-7-6" class="cls-14" d="M299.83,834.85H402"/><path id="path4788-6-0-6-7-9-5-4-7-6-5" class="cls-14" d="M300.68,859.76H402.83"/><path id="path4788-6-0-6-7-9-5-4-7-6-5-6" class="cls-14" d="M300.26,884.68H402.4"/><path id="path4788-6-0-6-7-9-5-4-7-6-5-6-9" class="cls-14" d="M284.74,921.58H386.89"/><path id="path4790-9-4-3" class="cls-20" d="M416.47,759.32H784.22"/><path id="path4790-9-4-3-7" class="cls-20" d="M418.15,782.63h551"/><path id="path4790-9-4-3-7-4" class="cls-20" d="M417.54,808.82H851.33"/><path id="path4790-9-4-3-7-4-5" class="cls-20" d="M416.81,834.44H865.51"/><path id="path4790-9-4-3-7-4-5-2" class="cls-20" d="M416.79,860.62H810.64"/><path id="path4790-9-4-3-7-4-5-2-5" class="cls-20" d="M418,885.39h479.6"/><path id="path4813-3-4" class="cls-16" d="M247.3,743.33h50.29"/><path id="path4813-3-4-7" class="cls-16" d="M249.58,968h50.29"/><path id="path4813-3-4-7-4" class="cls-21" d="M251.88,936h50.29"/><path id="path4813-3-4-7-4-4" class="cls-21" d="M252.42,700.28h50.29"/><path id="path4788-6-0-6-7-9-2-0-2-3-7-5-9-3" class="cls-20" d="M407.83,985.28H510"/><path id="path4788-6-0-6-7-9-2-0-2-3-7-5-9-3-0" class="cls-20" d="M407.07,997H509.22"/><path id="path4817-5-5-2-9-8-7" class="cls-17" d="M255.37,898.26H256"/><path id="path4817-5-5-2-9-8-7-8" class="cls-17" d="M250.42,710.66h.67"/><path id="path4817-5-5-2-9-8-7-8-6" class="cls-17" d="M409.1,685.3h.67"/><path id="path4817-5-5-2-9-8-7-8-6-8" class="cls-17" d="M409.48,674h.67"/><path id="path4817-5-5-2-9-8-7-8-6-8-8" class="cls-17" d="M412.53,622.5h.67"/><path id="path4817-5-5-2-9-8-7-8-6-8-8-4" class="cls-17" d="M412.15,609.62h.67"/></g><path id="path6287" class="cls-22" d="M226.18,1020.61V528.78"/><ellipse class="cls-3" cx="826.52" cy="451.37" rx="6.35" ry="14.75" transform="translate(-77.09 716.65) rotate(-45)"/><ellipse class="cls-3" cx="638.46" cy="475.69" rx="4.49" ry="9.87"/><ellipse class="cls-3" cx="643.73" cy="511.59" rx="5.2" ry="12.92"/><circle class="cls-3" cx="663.59" cy="501.38" r="5.5"/><ellipse class="cls-3" cx="664.71" cy="529.32" rx="4.8" ry="9"/><circle class="cls-3" cx="670.43" cy="471.88" r="5.59"/><ellipse class="cls-3" cx="705.77" cy="479.62" rx="5.07" ry="8.13"/><ellipse class="cls-3" cx="729.78" cy="459.99" rx="7.89" ry="5.09"/><ellipse class="cls-3" cx="725.86" cy="500.6" rx="5.94" ry="15.48"/><circle class="cls-3" cx="708.8" cy="527.08" r="6.16"/><circle class="cls-3" cx="732.92" cy="541.21" r="7.18"/><ellipse class="cls-3" cx="751.55" cy="510.47" rx="4.04" ry="11.67"/><circle class="cls-3" cx="757.04" cy="477.94" r="5.61"/><ellipse class="cls-3" cx="777.35" cy="482.76" rx="3.14" ry="12.68"/><ellipse class="cls-3" cx="778.13" cy="522.92" rx="3.25" ry="8.64"/><ellipse class="cls-3" cx="792.38" cy="498.36" rx="4.53" ry="6.93"/><circle class="cls-3" cx="791.6" cy="535.49" r="3.7"/><circle class="cls-3" cx="805.17" cy="519.45" r="6.28"/><ellipse class="cls-3" cx="806.07" cy="483.1" rx="3.81" ry="8.75"/><path class="cls-3" d="M659.56,555.13a7.47,7.47,0,0,1-2.06,5.17c-3.95-1-7.66-4.36-11.25-10.25a7.51,7.51,0,0,1,5.67-2.57A7.65,7.65,0,0,1,659.56,555.13Z"/><path class="cls-3" d="M720.12,554.45a7.17,7.17,0,0,1-2.28,5.24c-3.72-1.9-7.16-5.46-10.3-9.94a7.1,7.1,0,0,1,5.4-2.48A7.18,7.18,0,0,1,720.12,554.45Z"/><path class="cls-3" d="M765.29,539.23c0,.43,0,.84,0,1.26,0,7-3.57,11.9-8.8,15.24a9.4,9.4,0,0,1,5.28-17.18A9.26,9.26,0,0,1,765.29,539.23Z"/><path class="cls-3" d="M812.78,532.82c-2.5,6.26-6.07,10.73-10.21,13.43a8.46,8.46,0,0,1-2.19-5.71,8.61,8.61,0,0,1,8.6-8.62A8.49,8.49,0,0,1,812.78,532.82Z"/><path class="cls-3" d="M628.65,452.08c-3.06-.64-7.78-3.7-12.28-8.2-5.52-5.52-8.87-11.38-8.24-14.08A219.29,219.29,0,0,1,628.65,452.08Z"/><ellipse class="cls-3" cx="575.75" cy="444.5" rx="5.25" ry="10"/><path class="cls-3" d="M518.72,109.5c-.76,5.87-3.71,10.24-7.22,10.24-4.09,0-7.41-5.93-7.41-13.24s3.32-13.24,7.41-13.24a5.38,5.38,0,0,1,4,2.11c.23,1.44.51,2.9.81,4.39Q517.34,104.77,518.72,109.5Z"/><ellipse class="cls-5" cx="557.92" cy="111.9" rx="40.44" ry="59.38" transform="translate(-10.83 129.66) rotate(-13.13)"/><path d="M542.85,73.6c.78,1.19.53,2.49,1.2,3.77.29.56,1,.88,1.31,1.36A21.33,21.33,0,0,1,547,82.18c.46,1,.59,2.17,1.38,3,.49.51,1.53.64,1.92,1.11-1.22-1.48-.06,2.7.43,3.47s1.6,1.24,1.89,2c.18.47-.22.72-.08,1.58.31,1.91,1,2.73,1.94,4.43,1.24,2.2.63,4.44,1.17,6.86.65,2.92,1,2.62,3,4.32l-.77-2.92q-.33,1.86-.72,3.71a3,3,0,0,0,.77,2.92c.63.53,1.47.84,2.05,1.34l-.77-2.92c-.53,2.6-.49,3.47.92,5.74v-3c-.77,1.53-2,2.36-1.62,4.27a6.11,6.11,0,0,0,.95,1.93q.31.63.69,1.22,0-1.13-.13-.16c0,1.58-.84,3.17-.8,4.74a11.63,11.63,0,0,0,1.81,4.91v-3c-1.13,1.89-1.69,2.11-1.51,4.49s1,3.76-.15,5.81a3,3,0,0,0,0,3c.46.68,1.2,1.24,1.62,1.89v-3l-1.06,1.63c-2.12,3.24,3.07,6.25,5.18,3l1.06-1.63a3,3,0,0,0,0-3c-.46-.7-1.18-1.22-1.62-1.89v3a8.77,8.77,0,0,0,1.4-6.55c-.12-.92,0-4.38-.55-2.56.4-1.23,1.31-1.56,1.17-3.1-.1-1.1-1.07-1.93-1.23-3a12,12,0,0,1,.47-3.1c.51-3-.39-4.29-1.8-6.94v3c.61-1.2,1.73-2,1.72-3.47a8.19,8.19,0,0,0-.41-1.51c-.47-2.61-.88,1.65-.31-1.12a3,3,0,0,0-.77-2.92c-.64-.54-1.45-.84-2.05-1.34l.77,2.92c.45-2.15,1.52-4.75-.05-6.63-.23-.27-1.78-1.06-1.86-1.23-.14-.32.79-2.55.71-3.29-.28-2.43-1.35-6.08-3.36-7.67q-.16,2.73.43.89l.19-1.44a6.89,6.89,0,0,0-1.26-3.44c-.52-.79-1.72-1.5-2.09-2.34.65,1.52.11-1.87,0-2.14a4.23,4.23,0,0,0-.93-2.19c-.29-.32-3-1.8-1.59-.42-1.41-1.4-2.23-4.9-3.24-6.82q-1-1.25-.59-.09a6.46,6.46,0,0,0-.11-1.73,9.6,9.6,0,0,0-1.2-2.2c-2.11-3.22-7.31-.21-5.18,3Z"/></svg>