<?xml version="1.0" encoding="UTF-8" standalone="no"?>
<!-- Created with Inkscape (http://www.inkscape.org/) -->

<svg
   xmlns:dc="http://purl.org/dc/elements/1.1/"
   xmlns:cc="http://creativecommons.org/ns#"
   xmlns:rdf="http://www.w3.org/1999/02/22-rdf-syntax-ns#"
   xmlns:svg="http://www.w3.org/2000/svg"
   xmlns="http://www.w3.org/2000/svg"
   xmlns:sodipodi="http://sodipodi.sourceforge.net/DTD/sodipodi-0.dtd"
   xmlns:inkscape="http://www.inkscape.org/namespaces/inkscape"
   width="134.57262mm"
   height="56.325436mm"
   viewBox="0 0 134.57262 56.325436"
   version="1.1"
   id="svg8"
   inkscape:version="0.92.5 (2060ec1f9f, 2020-04-08)"
   sodipodi:docname="tekek.svg">
  <defs
     id="defs2" />
  <sodipodi:namedview
     id="base"
     pagecolor="#ffffff"
     bordercolor="#666666"
     borderopacity="1.0"
     inkscape:pageopacity="0.0"
     inkscape:pageshadow="2"
     inkscape:zoom="0.84985545"
     inkscape:cx="385.02464"
     inkscape:cy="-28.148141"
     inkscape:document-units="mm"
     inkscape:current-layer="layer1"
     showgrid="false"
     inkscape:window-width="1920"
     inkscape:window-height="1056"
     inkscape:window-x="1080"
     inkscape:window-y="454"
     inkscape:window-maximized="0" />
  <metadata
     id="metadata5">
    <rdf:RDF>
      <cc:Work
         rdf:about="">
        <dc:format>image/svg+xml</dc:format>
        <dc:type
           rdf:resource="http://purl.org/dc/dcmitype/StillImage" />
        <dc:title></dc:title>
      </cc:Work>
    </rdf:RDF>
  </metadata>
  <g
     inkscape:label="Layer 1"
     inkscape:groupmode="layer"
     id="layer1"
     transform="translate(-1.852644,-2.7589306)">
    <g
       id="g4911"
       transform="translate(-19.61363,-91.218944)"
       inkscape:export-xdpi="96"
       inkscape:export-ydpi="96">
      <g
         id="g4873">
        <g
           id="g4806"
           inkscape:export-xdpi="96"
           inkscape:export-ydpi="96"
           style="stroke-width:0.26458332;stroke-miterlimit:4;stroke-dasharray:none">
          <g
             style="opacity:1;stroke-width:0.26458332;stroke-miterlimit:4;stroke-dasharray:none"
             transform="translate(-2.2890982,-3.91211)"
             id="g232">
            <g
               style="stroke-width:0.26458332;stroke-miterlimit:4;stroke-dasharray:none"
               id="g188">
              <path
                 inkscape:connector-curvature="0"
                 id="path44"
                 d="m 81.855468,135.14115 c 0,0 -2.480469,1.15755 -8.863542,1.12447 -6.383073,-0.0331 -13.229166,-2.48046 -19.942968,-8.69817 -6.713802,-6.21771 -5.225521,-11.1125 -10.583334,-17.36328 -5.357812,-6.25078 -6.217708,-5.78776 -10.219531,-6.08542 -4.001823,-0.29766 -1.294611,0.0747 -6.486322,-0.25272 -5.191711,-0.32741 2.054552,-1.18595 2.054552,-1.18595 0,0 3.439583,-0.72761 6.746874,-0.71107 3.307292,0.0165 9.227344,3.07578 11.641667,6.91224 2.414323,3.83646 6.945312,9.06198 8.268229,10.78177 1.322917,1.71979 8.797396,8.16901 16.304948,7.67292 7.507552,-0.4961 8.268229,0.16536 9.921875,-0.39688"
                 style="fill:none;stroke:#000000;stroke-width:0.26458332;stroke-linecap:butt;stroke-linejoin:miter;stroke-miterlimit:4;stroke-dasharray:none;stroke-opacity:1"
                 sodipodi:nodetypes="ccssscccsscc" />
              <path
                 inkscape:connector-curvature="0"
                 id="path46"
                 d="m 80.466405,127.03828 c 0,0 4.001823,-2.8112 5.192448,-2.54661 1.190625,0.26458 9.558073,-6.4823 15.676567,-8.49974 6.11848,-2.01745 18.35843,-1.23585 25.45321,1.25935 m 11.65632,4.76 c 5.11376,4.77729 -1.23731,9.03671 -1.23731,9.03671 m -11.05062,3.20743 c -3.50762,0.39326 -7.47214,0.65485 -11.19556,0.48885 -9.94674,-0.44345 -16.455179,-3.4077 -16.455179,-3.4077 m -9.297118,3.38045 c -1.394852,0.52541 -2.504267,0.0355 -3.534822,0.10111 -1.569831,0.0999 -2.614811,0.50988 -3.94628,0.31806"
                 style="fill:none;stroke:#000000;stroke-width:0.26458332;stroke-linecap:butt;stroke-linejoin:miter;stroke-miterlimit:4;stroke-dasharray:none;stroke-opacity:1"
                 sodipodi:nodetypes="cccccccsccsc" />
            </g>
            <path
               style="fill:none;stroke:#000000;stroke-width:0.26458332;stroke-linecap:butt;stroke-linejoin:miter;stroke-miterlimit:4;stroke-dasharray:none;stroke-opacity:1"
               d="m 85.719265,124.42905 c -1.463515,-1.28908 -0.436911,-3.00534 -0.436911,-3.00534 0,0 0.541455,-4.10622 -0.203782,-6.6013 -0.05704,-0.60254 -0.561266,0.60804 -0.561266,0.60804 0,0 -1.169305,0.74835 -2.33861,0.70158 -1.169302,-0.0468 -4.5369,-0.56127 -4.95785,-0.93545 -0.420949,-0.37417 -3.601455,-0.3274 -3.601455,-0.3274 0,0 -0.140317,0.37418 -0.654812,0.37418 -0.514493,0 -2.186599,-0.49111 -2.186599,-0.92375 0,-0.43265 -0.958829,-1.05238 -0.958829,-1.05238 0,0 1.274543,-0.0351 0.900364,-0.26894 -0.374176,-0.23386 0.970524,-0.57296 0.970524,-0.57296 0,0 1.566867,-0.1637 2.057974,0.46773 0.491109,0.63142 2.315223,0.21047 2.315223,0.21047 0,0 -1.145918,-1.42655 -2.233372,-1.07576 -1.087453,0.35079 -3.379287,-0.76005 -3.379287,-0.76005 0,0 -0.748356,-0.49111 -0.561266,-0.94713 0.187087,-0.45603 -1.122532,-0.74836 -1.122532,-0.74836 0,0 1.321313,0.0117 1.356392,-0.25725 0.03508,-0.26893 0.643117,-0.67819 1.426551,-0.33909 0.783434,0.33909 3.987326,2.11644 4.548592,1.95273 0.561266,-0.1637 0.140317,-0.73666 0.140317,-0.73666 0,0 -1.882579,-0.22216 -2.888181,-0.91205 -1.005602,-0.68989 -1.613638,-0.80682 -1.742263,-1.91766 -0.128624,-1.11084 -0.654809,-1.181 -0.654809,-1.181 0,0 1.122532,0.42095 1.27454,0.1754 0.152011,-0.24556 0.491109,-0.32741 0.68989,-0.29233 0.198782,0.0351 1.818714,0.75814 2.314808,1.41133 0.496094,0.65319 0.08268,-0.91777 0.08268,-0.91777 0,0 0.214973,-0.46302 -0.529167,-0.96739 -0.744141,-0.50436 0.810286,0.28112 1.141015,0.27286 0.33073,-0.008 0.56224,-0.14056 0.7028,-0.0496 0.14056,0.091 0.744141,0.22324 1.413867,1.66191 0.669727,1.43867 0.214974,-1.0418 0.214974,-1.0418 0,0 0.02479,-1.04179 1.02526,-0.16536 1.000456,0.87643 1.405599,2.08359 1.645378,3.05098 0.239779,0.96738 0.321847,1.17439 0.24575,1.79405 -0.0761,0.61966 1.19583,-0.13046 1.19583,-0.13046 0,0 3.772304,-1.2067 5.402982,-0.83708 1.63068,0.36962 1.605568,-0.70249 3.226141,0.96769 1.620573,1.67018 2.901922,5.18923 2.53812,8.79418"
               id="path48"
               inkscape:connector-curvature="0"
               sodipodi:nodetypes="cccccccsscccccscccccccsscccsccccscccccssc" />
            <path
               style="fill:none;stroke:#000000;stroke-width:0.26458332;stroke-linecap:butt;stroke-linejoin:miter;stroke-miterlimit:4;stroke-dasharray:none;stroke-opacity:1"
               d="m 126.15273,134.24374 c -0.35796,0.29774 -0.64374,0.60204 -0.75655,0.87779 -0.42095,1.02898 -0.56127,0.86528 -0.49111,2.1749 0.0702,1.30962 1.02899,3.01681 1.02899,3.01681 0,0 0.81851,1.91766 -0.56127,2.54908 -1.37978,0.63142 -3.41488,2.89952 -3.19593,4.0142 0.21896,1.11468 -0.17914,1.71183 -0.17914,1.71183 0,0 0.71658,-0.7962 1.69192,-0.73649 0.97535,0.0597 1.61231,-2.52793 1.61231,-2.52793 0,0 0.99248,-1.91171 0.88605,-0.60406 -0.10644,1.30764 -0.94273,2.53927 -0.94273,2.53927 0,0 -1.7638,1.71818 -1.29244,2.99542 0.47136,1.27724 0.22808,1.77901 0.22808,1.77901 0,0 0.2889,-1.44449 0.94272,-1.03395 0.65383,0.41054 1.30765,-1.53573 1.30765,-1.53573 0,0 1.26203,-5.12415 1.33806,-3.72527 0.076,1.39887 -0.38013,3.8165 -0.38013,3.8165 0,0 0,1.1708 0.42574,1.18601 0.42575,0.0152 0.48657,1.29244 0.48657,1.29244 0,0 0.24328,-1.36847 0.77547,-1.27724 0.53218,0.0912 0.71464,-0.85149 0.71464,-0.85149 0,0 -0.0304,-0.54739 -0.31931,-0.82108 -0.2889,-0.27369 -0.18246,-4.02938 0,-3.83171 0.18246,0.19767 -0.38013,3.32994 0.74506,4.12061 1.12518,0.79067 0.97313,1.27724 0.97313,1.27724 0,0 -0.31931,-1.24683 0.15205,-1.36847 0.47136,-0.12164 0.0456,-1.59655 0.0456,-1.59655 0,0 -1.04916,-2.96501 -0.60821,-2.17434 0.44095,0.79067 0.66903,1.85503 1.29244,2.26557 0.62341,0.41054 1.36847,-0.62341 1.35326,-0.8819 -0.0152,-0.25849 -0.27369,-1.07957 -1.59654,-2.29598 -1.32285,-1.21642 -1.99188,-2.50886 -1.97668,-3.04104 0.0152,-0.53219 -0.076,-1.99189 0.54739,-2.50886 0.54967,-0.34493 0.72464,-0.50344 0.66903,-1.09478 -0.11707,-0.65279 0.37971,-1.91773 0.97271,-1.99376 0.3996,-0.0512 2.58071,-1.01297 4.02142,-1.7791"
               id="path52"
               inkscape:connector-curvature="0"
               sodipodi:nodetypes="ccccsccccccsccccccccccsccscssccscccc" />
            <path
               style="fill:none;stroke:#000000;stroke-width:0.26458332;stroke-linecap:butt;stroke-linejoin:miter;stroke-miterlimit:4;stroke-dasharray:none;stroke-opacity:1"
               d="m 126.79714,117.14294 c -0.55818,-0.47003 -1.07288,-1.02068 -1.43228,-1.64604 -1.31409,-2.28652 0.34167,-4.31023 0.34167,-4.31023 0,0 1.6032,-1.65577 1.57692,-2.3391 -0.0263,-0.68333 0.0526,-1.13012 -0.84103,-2.26024 -0.89358,-1.13013 -1.52435,-1.99743 -1.55063,-2.60192 -0.0263,-0.60448 -0.31539,-1.60319 0.36795,-1.65576 0.68333,-0.0526 0.36794,-1.36666 0.36794,-1.36666 0,0 0.23654,0.89359 0.86731,0.97243 0.63076,0.0789 0.73589,1.68205 0.73589,1.68205 0,0 0.68333,3.54806 0.78846,2.31281 0.10513,-1.23525 0.42051,-2.31281 -0.65705,-4.20511 -1.07756,-1.892305 0.7359,-2.207688 0.7359,-2.207688 0,0 0.39423,-0.157692 0.10512,-1.208969 -0.2891,-1.051277 0.65705,1.130123 0.65705,1.130123 0,0 1.025,-0.05256 0.65705,1.471794 -0.36795,1.52435 0.39423,5.88715 0.52564,4.44164 0.13141,-1.4455 0.63077,-1.76089 0.55192,-2.57563 -0.0788,-0.81474 0.0263,-2.20768 0.63077,-2.20768 0.60448,0 1.07756,-1.419224 1.07756,-1.419224 0,0 -0.4468,1.392944 0.34166,1.655764 0.78846,0.26282 0.21026,1.65576 0.21026,1.65576 0,0 -0.70962,0.68333 -0.70962,1.05128 0,0.36795 -1.20896,3.41665 -0.70961,2.86473 0.49936,-0.55192 1.025,-3.10127 1.025,-3.10127 0,0 0.44679,-1.10384 0.81474,-0.94615 0.36795,0.15769 0.68333,-0.2891 0.70961,-0.55192 0.0263,-0.26282 -0.26282,0.70961 0.0788,1.025 0.34166,0.31538 0.8673,0.65704 0.10512,1.39294 -0.76217,0.73589 -3.23267,3.25896 -1.97114,2.73332 1.26153,-0.52564 2.89101,-2.12884 3.36409,-1.41922 0.47307,0.70961 0.97243,1.34037 -0.63077,1.97114 -1.6032,0.63077 -3.33781,1.41923 -3.41665,1.94487 -0.0788,0.52563 -1.10384,0.34166 -0.91987,1.65576 0.18397,1.31409 -0.23654,2.57563 0.44679,3.20639 0.68333,0.63077 0.26857,0.31338 1.65747,1.34744 2.55286,1.90065 4.07683,3.72389 4.9155,4.94114 m -7.5454,-1.50526 h 5e-5"
               id="path56"
               inkscape:connector-curvature="0"
               sodipodi:nodetypes="ccccccccccsccccsscscscsccsccsscscccsccc" />
            <path
               style="fill:none;stroke:#000000;stroke-width:0.26458332;stroke-linecap:butt;stroke-linejoin:miter;stroke-miterlimit:4;stroke-dasharray:none;stroke-opacity:1"
               d="m 95.309795,130.39904 h -3e-6 m 3.196489,0.93753 c 0.829712,0.67801 2.528749,2.46823 3.442519,3.75496 3.51701,5.75533 -0.10427,6.25666 -0.10427,6.25666 0,0 -3.163094,2.50267 -5.144368,3.33689 -1.981277,0.83422 -1.981277,-0.34759 -1.633683,1.32085 0.347591,1.66844 0.764701,5.77003 -0.556149,5.94382 -1.320851,0.1738 -1.355609,-1.98127 -1.147054,-2.78073 0.208555,-0.79946 -0.625668,0.17379 -0.556149,1.91176 0.06952,1.73796 -1.633683,1.63368 -1.633683,1.63368 0,0 -0.625665,0.59091 -0.729943,1.25133 -0.104277,0.66043 0.347591,-1.56416 -0.312832,-1.84224 -0.660427,-0.27807 0.903739,-2.15507 0.903739,-2.15507 0,0 0.173795,-0.90374 -0.764704,0.34759 -0.938498,1.25133 -1.598924,2.39839 -2.780739,2.67646 -1.181811,0.27808 -1.703202,0.55615 -1.703202,0.55615 0,0 1.042779,-0.83422 0.764704,-1.25133 -0.278074,-0.41711 -0.451868,-0.97326 0.03476,-1.28609 0.48663,-0.31284 4.240626,-3.05882 2.745981,-2.18984 -1.494647,0.86899 -2.71122,2.12032 -3.267368,1.98128 -0.556147,-0.13904 -1.494648,0.59091 -1.494648,0.59091 0,0 1.042779,-1.07754 0.834224,-1.49465 -0.208555,-0.41711 -0.625668,-0.97326 -0.03476,-1.32085 0.590907,-0.34759 4.171108,-2.43314 2.780739,-1.80748 -1.39037,0.62567 -2.433145,1.66844 -2.745978,1.42513 -0.312833,-0.24332 -1.077537,0.59091 -1.077537,0.59091 0,0 1.008017,-1.04278 0.973259,-1.49465 -0.03476,-0.45187 -0.243316,-1.18181 1.147054,-1.39037 1.390369,-0.20856 6.25666,-4.10159 6.25666,-4.10159 0,0 0,-0.86898 0.347593,-1.07753 0.347592,-0.20856 1.529406,-1.21658 2.155071,-0.90374 0.625666,0.31283 0.48663,-0.3476 0,-0.52139 -0.486629,-0.1738 -1.736215,-1.74465 -2.277963,-1.61158 -0.590907,0.0348 -2.890856,-1.44157 -3.718391,-2.9688"
               id="path58"
               inkscape:connector-curvature="0"
               sodipodi:nodetypes="cccccsccssccccscccccscssccccscccccc" />
            <g
               style="stroke-width:0.26458332;stroke-miterlimit:4;stroke-dasharray:none"
               id="g119"
               transform="translate(-4.1980871,0.39013041)">
              <g
                 style="stroke-width:0.30086547;stroke-miterlimit:4;stroke-dasharray:none"
                 transform="matrix(0.86798525,0,0,0.89098003,13.716917,-60.44501)"
                 id="g100">
                <path
                   style="fill:none;stroke:#000000;stroke-width:0.30086547;stroke-linecap:butt;stroke-linejoin:miter;stroke-miterlimit:4;stroke-dasharray:none;stroke-opacity:1"
                   d="m 145.79067,218.00216 c 0.5909,1.11229 2.42266,2.84038 2.49218,3.81363 0.0695,0.97326 1.18181,1.49465 1.18181,1.49465 0,0 8.68981,10.11494 13.69514,9.59355 5.00532,-0.52139 3.75399,-6.32618 3.75399,-6.32618 0,0 2.39839,-0.86898 2.6417,-1.84224 0.24332,-0.97326 0.83422,-4.37966 0.52139,-5.17912 -0.31283,-0.79947 0.52139,-0.97326 0.52139,-0.97326 0,0 0.86898,-1.98128 0.66043,-3.37165 -0.20856,-1.39037 -0.86899,-1.73796 -0.86899,-1.73796 0,0 -0.27807,-0.0348 -0.34759,0.20856 -0.0695,0.24331 -0.62566,0.0348 -0.62566,0.0348 0,0 -0.31283,-3.5802 -5.38768,-6.36094 -5.07485,-2.78074 -8.72457,-4.24063 -12.06145,-4.62298 -1.03241,-0.1183 -2.69629,-0.19781 -4.41982,-0.0169 m -6.07376,7.57098 v -4e-5"
                   id="path71"
                   inkscape:connector-curvature="0"
                   sodipodi:nodetypes="cccsccccccccssccc" />
                <path
                   style="fill:none;stroke:#000000;stroke-width:0.30086547;stroke-linecap:butt;stroke-linejoin:miter;stroke-miterlimit:4;stroke-dasharray:none;stroke-opacity:1"
                   d="m 146.47537,216.1848 c 0,0 5.04009,-0.83422 5.52672,0.59091 0.48663,1.42513 9.6283,8.96788 13.06947,9.07215 3.44116,0.10428 5.07484,0.1738 5.1096,-5.73527"
                   id="path75"
                   inkscape:connector-curvature="0" />
                <path
                   style="fill:none;stroke:#000000;stroke-width:0.30086547;stroke-linecap:butt;stroke-linejoin:miter;stroke-miterlimit:4;stroke-dasharray:none;stroke-opacity:1"
                   d="m 146.47537,216.1848 c 0,0 5.87431,0.0348 4.86629,1.45989 -1.00802,1.42513 0.55615,3.37164 0.55615,3.37164 0,0 7.54275,11.88766 11.95717,11.05344 4.41442,-0.83422 2.43314,-6.3957 3.05881,-5.49196"
                   id="path77"
                   inkscape:connector-curvature="0" />
                <path
                   style="fill:none;stroke:#000000;stroke-width:0.30086547;stroke-linecap:butt;stroke-linejoin:miter;stroke-miterlimit:4;stroke-dasharray:none;stroke-opacity:1"
                   d="m 156.38175,210.7276 c 0,0 2.91977,-0.38235 3.82351,1.877 0.90374,2.25935 -1.45988,5.49196 -1.45988,5.49196"
                   id="path79"
                   inkscape:connector-curvature="0" />
                <path
                   style="fill:none;stroke:#000000;stroke-width:0.30086547;stroke-linecap:butt;stroke-linejoin:miter;stroke-miterlimit:4;stroke-dasharray:none;stroke-opacity:1"
                   d="m 169.52074,214.62064 c 0,0 -0.52139,1.45989 0.0695,3.47592"
                   id="path81"
                   inkscape:connector-curvature="0" />
                <path
                   style="fill:none;stroke:#000000;stroke-width:0.30086547;stroke-linecap:butt;stroke-linejoin:miter;stroke-miterlimit:4;stroke-dasharray:none;stroke-opacity:1"
                   d="m 170.38971,213.47358 c 0,0 -0.66042,2.95454 0.20856,5.10961"
                   id="path83"
                   inkscape:connector-curvature="0" />
                <path
                   style="fill:none;stroke:#000000;stroke-width:0.30086547;stroke-linecap:butt;stroke-linejoin:miter;stroke-miterlimit:4;stroke-dasharray:none;stroke-opacity:1"
                   d="m 155.96464,212.46556 c -0.31284,0 -1.94652,0.41712 -2.12032,2.88502 -0.17379,2.4679 2.60695,2.50266 2.60695,2.50266 0,0 2.05079,-0.31283 1.77272,-3.12833 -0.27808,-2.81549 -2.25935,-2.25935 -2.25935,-2.25935 z"
                   id="path85"
                   inkscape:connector-curvature="0" />
                <path
                   style="fill:none;stroke:#000000;stroke-width:0.30086547;stroke-linecap:butt;stroke-linejoin:miter;stroke-miterlimit:4;stroke-dasharray:none;stroke-opacity:1"
                   d="m 153.14914,213.75165 c 0,0 0.97326,-2.32886 2.6417,-2.39838 1.66844,-0.0695 2.60694,0.7647 2.8155,1.42513 0.20855,0.66042 1.52941,3.26736 -0.86898,5.21388 -2.39839,1.94652 -5.10961,-1.77272 -4.83153,-3.02405 0.27807,-1.25133 0.24331,-1.21658 0.24331,-1.21658 z"
                   id="path87"
                   inkscape:connector-curvature="0" />
                <path
                   style="fill:none;stroke:#000000;stroke-width:0.30086547;stroke-linecap:butt;stroke-linejoin:miter;stroke-miterlimit:4;stroke-dasharray:none;stroke-opacity:1"
                   d="m 158.01543,225.84786 c 0,0 1.28609,2.32887 4.17111,4.17111 2.88502,1.84224 3.02405,-1.91176 3.02405,-1.91176"
                   id="path89"
                   inkscape:connector-curvature="0" />
              </g>
            </g>
            <path
               style="fill:none;stroke:#000000;stroke-width:0.26458332;stroke-linecap:butt;stroke-linejoin:miter;stroke-miterlimit:4;stroke-dasharray:none;stroke-opacity:1"
               d="m 91.276275,132.47156 c 0,0 6.287248,-1.77466 7.230004,-1.13499"
               id="path190"
               inkscape:connector-curvature="0" />
            <path
               style="fill:none;stroke:#000000;stroke-width:0.26458332;stroke-linecap:butt;stroke-linejoin:miter;stroke-miterlimit:4;stroke-dasharray:none;stroke-opacity:1"
               d="m 137.86377,124.07865 c 0,0 1.81617,2.53163 -0.33021,4.89816"
               id="path192"
               inkscape:connector-curvature="0" />
            <path
               style="fill:none;stroke:#000000;stroke-width:0.26458332;stroke-linecap:butt;stroke-linejoin:miter;stroke-miterlimit:4;stroke-dasharray:none;stroke-opacity:1"
               d="m 80.406773,130.95808 c 0,0 13.263542,-4.73305 16.015314,-6.54921 2.751773,-1.81618 8.970773,-3.19206 10.566803,-1.87121"
               id="path194"
               inkscape:connector-curvature="0" />
            <path
               style="fill:none;stroke:#000000;stroke-width:0.26458332;stroke-linecap:butt;stroke-linejoin:miter;stroke-miterlimit:4;stroke-dasharray:none;stroke-opacity:1"
               d="m 99.779247,140.69935 c 0,0 3.026953,-0.71546 1.210783,-2.86184"
               id="path196"
               inkscape:connector-curvature="0" />
            <path
               style="fill:none;stroke:#000000;stroke-width:0.26458332;stroke-linecap:butt;stroke-linejoin:miter;stroke-miterlimit:4;stroke-dasharray:none;stroke-opacity:1"
               d="m 85.078572,114.82241 c 0,0 -0.222383,-1.68073 1.100759,-2.06989"
               id="path198"
               inkscape:connector-curvature="0" />
            <path
               style="fill:none;stroke:#000000;stroke-width:0.26458332;stroke-linecap:butt;stroke-linejoin:miter;stroke-miterlimit:4;stroke-dasharray:none;stroke-opacity:1"
               d="m 88.747781,113.04439 c 0,0 2.471161,7.02432 0.87561,9.28145"
               id="path200"
               inkscape:connector-curvature="0" />
            <path
               style="fill:none;stroke:#000000;stroke-width:0.26458332;stroke-linecap:butt;stroke-linejoin:miter;stroke-miterlimit:4;stroke-dasharray:none;stroke-opacity:1"
               d="m 130.79172,113.95213 c 0,0 -0.63291,-1.21078 -1.76114,-1.4034"
               id="path202"
               inkscape:connector-curvature="0" />
            <path
               style="fill:none;stroke:#000000;stroke-width:0.26458332;stroke-linecap:butt;stroke-linejoin:miter;stroke-miterlimit:4;stroke-dasharray:none;stroke-opacity:1"
               d="m 80.049044,127.98617 c 0,0 1.67858,2.09134 1.045673,5.14581"
               id="path204"
               inkscape:connector-curvature="0" />
          </g>
          <path
             inkscape:connector-curvature="0"
             id="path4776"
             d="m 143.17171,126.53849 -0.91452,2.36414"
             style="fill:none;stroke:#000000;stroke-width:0.26458332;stroke-linecap:butt;stroke-linejoin:miter;stroke-miterlimit:4;stroke-dasharray:none;stroke-opacity:1" />
        </g>
        <path
           style="opacity:1;fill:#f9f9f9;stroke-width:7.7660265;stroke-miterlimit:4;stroke-dasharray:none"
           d="m 319.3709,560.00119 c -0.62758,-1.97731 -0.05,-3.11118 2.54716,-5.00085 10.94232,-7.96143 11.88161,-11.83596 1.14042,-4.7042 -3.63004,2.41021 -6.8138,4.16846 -7.07502,3.90724 -0.26122,-0.26122 -0.79055,-1.79762 -1.1763,-3.41422 -0.61206,-2.56505 0.0499,-3.38221 5.19938,-6.4183 5.76366,-3.39823 7.3865,-5.35383 4.42988,-5.33824 -0.80896,0.005 -3.05935,1.05978 -5.00085,2.34559 -4.34583,2.87814 -5.19747,2.93152 -4.6926,0.29417 0.21681,-1.13255 0.43471,-2.4563 0.48422,-2.94168 0.0495,-0.48538 1.11726,-0.8825 2.37278,-0.8825 3.32484,0 23.65072,-14.08972 24.84057,-17.21926 1.26039,-3.31506 6.39919,-6.79654 8.71836,-5.90659 0.95504,0.36648 2.02484,0.19963 2.37737,-0.37076 0.9837,-1.59166 -7.64417,-9.15971 -11.26887,-9.88466 -1.76714,-0.35342 -5.50922,-2.86766 -8.31573,-5.58719 l -5.10274,-4.9446 -10.0017,0.25096 c -5.50093,0.13803 -16.62047,1.33579 -24.71008,2.66171 -20.99982,3.44195 -39.82163,2.62956 -55.30352,-2.38703 -18.70071,-6.05957 -36.91341,-17.88494 -51.03201,-33.1347 -8.09145,-8.73973 -10.87037,-13.42278 -18.51716,-31.20514 -7.66642,-17.82803 -11.74829,-24.12875 -23.68977,-36.56728 -13.50696,-14.06916 -14.86039,-14.62846 -38.50005,-15.90999 -10.704757,-0.58031 -19.961176,-1.20856 -20.569816,-1.39611 -3.137232,-0.9667 28.777906,-4.54264 36.258376,-4.06258 16.00243,1.02698 33.65627,12.30854 44.58624,28.49253 8.24792,12.21267 30.06287,39.11527 35.84556,44.2054 7.65424,6.73752 20.58129,14.59509 30.33803,18.44064 7.94257,3.13051 9.10288,3.25433 34.10903,3.63999 24.38086,0.37602 26.12632,0.25876 30.0051,-2.0157 6.79604,-3.98509 15.69552,-8.12747 18.83498,-8.76699 1.62246,-0.33051 10.35924,-5.20273 19.41507,-10.82716 35.73308,-22.19328 42.70652,-24.47494 74.71034,-24.44471 22.30166,0.0211 35.66247,1.61808 52.42594,6.26645 4.13852,1.14758 7.78403,1.82708 8.10111,1.50999 0.31708,-0.31708 -0.99325,-2.48091 -2.91184,-4.8085 -5.0276,-6.09934 -4.82917,-12.19142 0.62999,-19.34105 5.21061,-6.82413 5.32376,-11.00714 0.48789,-18.03585 -5.01072,-7.28283 -6.11656,-11.54237 -3.59013,-13.82875 2.87358,-2.60056 4.29157,-1.02708 6.1548,6.82974 0.90977,3.83628 2.316,7.18979 3.12496,7.45225 2.22954,0.72336 1.87389,-9.80529 -0.56065,-16.59731 -1.95984,-5.46767 -1.95542,-5.76416 0.10849,-7.27337 4.17473,-3.0526 5.45301,-0.96986 5.45301,8.8847 0,9.18129 0.66273,12.91373 2.29298,12.91373 1.29793,0 3.59037,-8.51283 3.59037,-13.33266 0,-4.72976 3.22993,-7.67684 5.70309,-5.20367 1.87282,1.87283 1.71791,3.21065 -0.9859,8.51401 -3.46346,6.79338 -4.21947,12.20099 -2.01409,14.40638 1.65105,1.65104 2.33595,1.52813 7.12548,-1.27872 6.14157,-3.5992 7.31124,-3.77889 8.27359,-1.27102 0.52153,1.35906 -0.94002,2.56135 -5.64091,4.64031 -3.48965,1.54328 -8.25052,4.4792 -10.5797,6.52426 -3.52445,3.0945 -4.2349,4.50074 -4.2349,8.38237 0,4.12861 -0.27019,4.57833 -2.35334,3.91716 -3.66344,-1.16273 -2.87081,0.0811 4.30335,6.75284 3.66119,3.40479 10.90574,10.29417 16.099,15.30973 l 9.4423,9.1192 h 6.65786 c 10.14098,0 23.33823,3.92142 37.39448,11.11137 15.19581,7.77284 21.47197,12.87528 25.05293,20.36772 1.4684,3.07232 3.23583,5.97506 3.92762,6.45053 0.87036,0.59818 0.84404,0.87003 -0.0854,0.8825 -0.7388,0.009 -1.66254,1.29004 -2.05275,2.84475 -1.04,4.14371 0.44223,10.11664 2.51051,10.11664 1.40926,0 1.47731,0.34304 0.33996,1.71347 -0.78213,0.94239 -1.07476,2.27537 -0.6503,2.96216 1.64216,2.65708 -0.84085,14.52978 -3.61991,17.30884 -3.82236,3.82236 -11.58065,3.68612 -19.63926,-0.34486 -8.47805,-4.24079 -22.48657,-14.84535 -30.42522,-23.03212 l -6.63679,-6.84418 h -8.3658 c -4.79275,0 -8.3658,0.50255 -8.3658,1.17667 0,0.64717 1.72088,1.17962 3.82418,1.18323 2.1033,0.004 5.78966,0.55244 8.1919,1.21961 4.0056,1.11247 4.26572,1.43695 3.13726,3.91363 -1.67456,3.67529 0.39421,8.21994 9.59167,21.07074 8.74086,12.21283 21.90751,25.03764 27.30391,26.59501 3.15218,0.9097 3.34379,1.12813 1.06597,1.21518 -5.78013,0.22088 -17.06394,-7.38477 -31.01219,-20.90319 -7.58217,-7.34854 -14.13972,-14.49681 -14.57235,-15.88506 -1.18404,-3.79944 -7.72519,-12.5258 -9.38917,-12.5258 -1.82363,0 -15.19086,6.27361 -17.56435,8.24343 -0.96629,0.80194 -1.7569,2.76587 -1.7569,4.36427 0,1.59839 -1.059,4.25247 -2.35334,5.89795 -1.49893,1.90557 -2.35334,4.7735 -2.35334,7.89918 0,4.22141 0.9178,6.02008 6.56582,12.86745 4.05575,4.91696 6.30468,8.64057 5.88274,9.74015 -1.01695,2.65013 -3.40368,1.34677 -5.30672,-2.89795 -1.66177,-3.70655 -3.61183,-5.01314 -3.61183,-2.42001 0,0.73387 0.60141,3.34164 1.33646,5.79502 0.73505,2.45338 0.98035,5.3887 0.5451,6.52294 -1.47,3.83074 -4.30501,-0.86089 -4.57657,-7.57369 -0.13567,-3.35355 -0.77617,-6.22554 -1.42334,-6.38215 -1.52915,-0.37009 -2.20993,12.54572 -0.80513,15.27545 1.5749,3.06031 0.42759,5.03151 -2.92856,5.03151 h -2.94926 l 0.84552,-10.15027 c 1.08835,-13.06549 -1.01065,-13.01714 -5.28208,0.12166 -2.27479,6.9972 -3.64089,9.45935 -5.64804,10.17952 -2.06879,0.74227 -2.67799,0.50809 -2.78693,-1.07133 -0.25737,-3.73135 0.3356,-5.53179 2.99088,-9.08128 4.61383,-6.16765 6.79385,-14.70839 3.75429,-14.70839 -1.52147,0 -5.42908,6.5879 -5.42908,9.15295 0,1.52088 -2.3205,3.31197 -5.58919,4.31405 -2.23971,0.68662 -2.64751,0.37312 -2.64751,-2.03532 0,-3.9498 4.52414,-10.29293 9.77764,-13.7089 5.66631,-3.68437 6.41649,-6.90039 3.29969,-14.14558 -2.9226,-6.79378 -3.15385,-12.27643 -0.71504,-16.95265 0.96677,-1.85369 1.75787,-3.4422 1.75798,-3.53001 1.3e-4,-0.0878 -13.63454,-0.16829 -30.29927,-0.17882 -33.45729,-0.0212 -42.38324,-1.24867 -66.05561,-9.08419 -10.69989,-3.54164 -11.31227,-3.61149 -19.54172,-2.22869 -11.37786,1.91182 -17.25407,3.60637 -16.53583,4.7685 0.32549,0.52666 4.70743,-0.0273 9.73765,-1.23112 14.8948,-3.56446 16.64071,-3.25254 23.72568,4.23877 6.73555,7.12185 11.86606,16.85664 11.88375,22.54865 0.0106,3.28727 -0.96441,4.35817 -8.81275,9.68322 -10.73312,7.28233 -17.35277,10.74248 -20.55155,10.74248 -2.31421,0 -2.37675,0.44806 -1.6374,11.73008 0.59006,9.00401 0.40073,12.17347 -0.8147,13.63797 -1.4538,1.75173 -1.70885,1.73632 -3.11615,-0.18827 -0.843,-1.15289 -1.53274,-3.84821 -1.53274,-5.98961 0,-2.1414 -0.51942,-3.89345 -1.15426,-3.89345 -1.2149,0 -2.10374,2.96045 -2.64143,8.79777 -0.40714,4.41997 -5.50373,7.58669 -7.23405,4.4948 -0.72237,-1.29082 -0.38254,-3.17772 1.05209,-5.84166 3.55553,-6.60223 0.72795,-6.0456 -5.7015,1.12239 -6.58037,7.33621 -8.42586,8.1302 -9.68394,4.16633 z m 54.30408,-44.89641 c 2.54785,-2.19158 3.02755,-3.36921 2.39654,-5.88336 -0.4636,-1.84712 -1.60456,-3.14333 -2.76685,-3.14333 -1.53839,0 -1.66414,0.31378 -0.56592,1.412 2.32131,2.32132 1.60666,5.60978 -1.52967,7.03879 -1.61792,0.73718 -2.94168,1.78483 -2.94168,2.32812 0,1.75085 2.14186,1.05683 5.40758,-1.75222 z m 170.52467,-21.25084 c 1.22913,-0.89875 2.91928,-1.37143 3.7559,-1.05039 2.18389,0.83802 6.1688,-8.62609 6.19998,-14.72487 0.0478,-9.34069 -7.08509,-13.14759 -16.92824,-9.03486 -10.73015,4.48334 -11.92848,19.2855 -1.99824,24.68286 3.9242,2.13292 6.18387,2.16497 8.9706,0.12726 z m -245.13269,-9.6747 0.36521,-4.24879 21.18007,-8.13526 c 11.64904,-4.4744 27.00459,-11.02367 34.12345,-14.55393 17.96105,-8.90695 31.77506,-11.75983 39.87319,-8.23463 1.63097,0.70998 2.0779,0.54076 1.68497,-0.63801 -2.01427,-6.04281 -22.80981,-2.85723 -41.46928,6.3525 -12.61119,6.2245 -28.09711,12.73056 -46.71579,19.62659 l -8.97344,3.32361 -1.81611,-4.62335 c -0.99885,-2.54284 -2.38819,-4.62334 -3.08742,-4.62334 -1.64051,0 -1.61147,0.25548 0.48643,4.27801 2.06828,3.96574 2.26385,6.31202 0.52613,6.31202 -0.68536,0 -0.91352,0.53814 -0.50703,1.19587 0.4065,0.65772 1.31464,0.84015 2.0181,0.40539 0.87591,-0.54135 1.05903,0.56514 0.58101,3.51081 -0.38391,2.36572 -0.23375,4.3013 0.33366,4.3013 0.56742,0 1.196,-1.91196 1.39685,-4.24879 z m 217.22372,-8.11602 c 5.50051,-6.24891 7.76971,-13.5058 6.09372,-19.48771 -1.30141,-4.64497 -6.41733,-11.49728 -7.66245,-10.26316 -0.46211,0.45805 0.52835,2.45927 2.20106,4.44716 6.25236,7.4305 4.96082,16.68279 -3.46933,24.85362 -2.19218,2.12475 -3.9858,4.28881 -3.9858,4.80903 0,2.17938 2.43931,0.62097 6.8228,-4.35894 z m -2.54877,-5.02971 c 2.62355,-4.20097 2.97298,-9.30145 0.95637,-13.95953 -1.07969,-2.49392 -2.20306,-3.90188 -2.49637,-3.1288 -0.29332,0.77308 0.0306,2.45915 0.71968,3.74682 1.73729,3.24618 1.554,7.18596 -0.51928,11.1613 -2.01106,3.85603 -2.09629,4.27801 -0.86413,4.27801 0.49149,0 1.48317,-0.94401 2.20373,-2.0978 z"
           id="path4826"
           inkscape:connector-curvature="0"
           transform="scale(0.26458333)" />
        <path
           style="opacity:1;fill:#f9f9f9;stroke-width:2.74570489;stroke-miterlimit:4;stroke-dasharray:none"
           d="m 560.65932,538.74072 c -7.81686,-2.17896 -20.12521,-14.98609 -32.67977,-34.0041 -4.77458,-7.23268 -5.55331,-10.11595 -3.55563,-13.1648 1.41837,-2.1647 -0.59972,-4.0727 -5.41281,-5.11753 -1.62154,-0.35201 -1.56944,-0.36598 0.66291,-0.17768 3.26038,0.27502 5.07739,1.1 5.89193,2.67514 2.97795,5.75872 23.20956,21.93019 34.53492,27.60435 4.92036,2.46516 6.43624,2.82172 12.14117,2.85582 2.81785,0.0168 4.55786,0.17483 4.22799,0.38388 -0.3083,0.19538 -0.96617,0.35811 -1.46192,0.36161 -1.18655,0.008 -1.32761,0.51361 -1.06999,3.83238 0.24349,3.1369 -0.43922,7.28023 -1.56234,9.48172 -2.17811,4.26946 -7.20033,6.52809 -11.71646,5.26921 z m 6.05331,-4.47172 c 1.50347,-1.18263 2.82015,-3.89123 2.89495,-5.95533 0.0967,-2.6693 -0.6137,-2.37942 -1.4241,0.58109 -0.95895,3.50322 -2.67444,5.20767 -4.88098,4.8496 -3.3139,-0.53778 -10.99045,-6.88831 -14.85007,-12.28494 -1.97315,-2.75891 -3.12012,-3.64046 -3.12012,-2.3981 0,1.4339 5.58776,8.0382 9.52929,11.26288 5.67673,4.64431 9.39028,5.88042 11.85103,3.9448 z"
           id="path4828"
           inkscape:connector-curvature="0"
           transform="scale(0.26458333)" />
        <path
           style="opacity:1;fill:#f9f9f9;stroke-width:2.74570489;stroke-miterlimit:4;stroke-dasharray:none"
           d="m 537.29646,490.43994 c -3.44132,-1.22733 -4.62462,-3.28979 -4.34925,-7.58061 0.33085,-5.15529 3.16168,-8.4573 7.25049,-8.4573 2.38879,0 4.09106,1.47638 4.91976,4.26689 1.35229,4.55365 0.47031,8.95459 -2.25397,11.24691 -1.50533,1.26666 -3.07154,1.41411 -5.56703,0.52411 z m 2.5961,-7.06221 c 1.86771,-4.777 1.96457,-5.23156 1.11485,-5.23156 -0.87173,0 -4.19149,8.77126 -3.48858,9.21729 0.29326,0.18609 0.56581,0.34121 0.60566,0.34471 0.0399,0.003 0.83548,-1.9452 1.76807,-4.33044 z"
           id="path4830"
           inkscape:connector-curvature="0"
           transform="scale(0.26458333)" />
        <path
           style="opacity:1;fill:#f9f9f9;stroke-width:2.74570489;stroke-miterlimit:4;stroke-dasharray:none"
           d="m 314.253,453.04467 c -1.21314,-2.07009 -1.42288,-5.25211 -0.49287,-7.47792 0.85282,-2.04108 1.12831,-5.18599 1.13657,-12.97432 0.005,-4.71825 -0.20762,-8.18004 -0.63881,-10.4004 -0.35547,-1.83047 -0.64633,-3.95506 -0.64637,-4.72131 -10e-5,-1.95761 1.14714,-4.14952 2.55212,-4.87606 1.23972,-0.64108 1.63091,-1.84306 0.59985,-1.84306 -1.63177,0 -4.40009,3.64429 -4.40009,5.79238 0,0.72495 -1.28517,3.04706 -2.47253,4.46749 -0.93654,1.12039 -5.21766,2.30614 -8.23028,2.27956 -5.12573,-0.0452 -14.17146,-1.73909 -19.25034,-3.60473 -1.2102,-0.44455 -3.82172,-0.77032 -7.38657,-0.92144 -4.91741,-0.20846 -5.60365,-0.15309 -6.33786,0.51136 -0.65515,0.59291 -1.24953,0.69466 -2.90941,0.49807 -2.83337,-0.33557 -5.74851,-1.68152 -6.2026,-2.86381 -0.20251,-0.52728 -0.83819,-1.46288 -1.41262,-2.07912 l -1.04443,-1.12044 1.10231,-0.12761 c 0.75708,-0.0876 1.14197,-0.40581 1.22899,-1.01593 0.26255,-1.84102 7.10472,-2.42911 9.36989,-0.80535 0.4971,0.35634 1.33953,0.96245 1.87206,1.34691 1.06256,0.76711 6.51093,0.93532 8.3117,0.25661 l 0.95963,-0.36168 -0.88717,-1.12786 c -0.48794,-0.62032 -1.76221,-1.7355 -2.8317,-2.47818 -1.8828,-1.30747 -2.08319,-1.35124 -6.31269,-1.37881 -3.66657,-0.0239 -4.92832,-0.21944 -7.85561,-1.21744 -4.34338,-1.48079 -5.87292,-2.6774 -5.87292,-4.59462 0,-0.89064 -0.26435,-1.55455 -0.72803,-1.82844 -0.66658,-0.39374 -0.65065,-0.45182 0.18864,-0.68815 0.50416,-0.14196 1.2105,-0.70657 1.56965,-1.2547 1.10168,-1.68137 2.77346,-1.3119 10.24945,2.26515 3.74934,1.79396 7.80639,3.58965 9.01566,3.99043 2.0322,0.67353 2.27633,0.67783 3.22413,0.0568 1.8371,-1.20372 0.9684,-3.98084 -1.24523,-3.98084 -2.1942,0 -7.66719,-1.99198 -10.74697,-3.91152 -3.51464,-2.19058 -4.28593,-3.02581 -4.83964,-5.24083 -0.91685,-3.66771 -0.91702,-3.68026 -0.046,-3.45249 0.4474,0.117 1.46463,-0.18973 2.26052,-0.68161 l 1.44705,-0.89433 2.89164,1.45621 c 1.59041,0.80091 3.78159,2.22645 4.8693,3.16786 1.73568,1.50221 2.05212,1.63718 2.58628,1.10302 0.50255,-0.50255 0.52843,-0.98258 0.14848,-2.7542 -0.78267,-3.6495 -0.76826,-3.67896 1.81487,-3.70981 2.88655,-0.0345 4.01651,0.85275 6.23091,4.89243 1.14726,2.09293 1.85437,2.95299 2.42784,2.95299 0.75082,0 0.79822,-0.2595 0.6579,-3.60179 -0.10689,-2.54587 -0.005,-3.65165 0.348,-3.77188 0.8971,-0.30564 4.16046,3.17257 5.65964,6.03226 1.73736,3.31403 2.81597,7.10918 3.15976,11.11779 0.24234,2.82576 0.285,2.91614 1.43859,3.04807 0.65387,0.0748 2.09163,-0.2524 3.19502,-0.72707 1.1034,-0.47467 4.31256,-1.4557 7.13147,-2.18007 4.80583,-1.23494 5.60503,-1.31945 12.82159,-1.35578 4.23297,-0.0213 8.12553,0.10132 8.65014,0.27251 2.74818,0.89679 6.73059,5.58393 9.28386,10.92672 2.97291,6.2209 4.54848,13.45963 4.51137,20.7269 l -0.0195,3.81804 -6.11347,3.81675 c -3.36241,2.09921 -6.17539,3.75482 -6.25107,3.67914 -0.0757,-0.0757 0.0622,-0.85717 0.30642,-1.73666 1.31929,-4.7512 -0.19796,-16.04366 -3.79219,-28.22409 -0.96488,-3.2699 -1.17513,-3.62954 -1.87057,-3.19973 -0.35618,0.22013 -0.1036,1.59403 0.93371,5.07887 2.75429,9.25309 4.2722,18.91636 3.74486,23.84054 -0.46838,4.37379 -1.51471,5.94883 -5.6394,8.48903 -4.67554,2.87945 -8.91092,5.10479 -9.71567,5.10479 -0.35731,0 -1.12557,-0.81208 -1.70724,-1.80461 z"
           id="path4832"
           inkscape:connector-curvature="0"
           transform="scale(0.26458333)" />
        <path
           style="opacity:1;fill:#f9f9f9;stroke-width:2.74570489;stroke-miterlimit:4;stroke-dasharray:none"
           d="m 319.06908,562.44706 c 0.34565,-0.75863 0.29624,-1.27505 -0.21693,-2.26743 -1.21477,-2.3491 -0.98496,-2.70564 4.22366,-6.55261 5.48687,-4.0525 7.59229,-5.91375 7.59229,-6.71182 0,-1.05838 -1.17174,-0.50284 -5.86179,2.77919 -6.08492,4.25813 -6.8646,4.67767 -8.95257,4.81725 l -1.72914,0.1156 0.4524,-1.19855 c 0.36073,-0.95569 0.30874,-1.49979 -0.25658,-2.68528 -0.38994,-0.81771 -0.70897,-1.8118 -0.70897,-2.20909 0,-0.48583 1.90168,-1.85698 5.80762,-4.18743 6.19413,-3.69568 7.07251,-4.39711 6.37715,-5.09247 -0.5892,-0.5892 -2.5017,0.26346 -7.01821,3.12894 -3.55173,2.25337 -5.15898,2.74702 -4.78167,1.46862 0.0973,-0.32962 0.28449,-1.62272 0.41601,-2.87356 0.26731,-2.54218 0.50866,-2.75265 4.54884,-3.96671 2.64751,-0.79558 6.88329,-3.29063 13.21249,-7.78273 7.73708,-5.49134 9.72447,-7.31601 10.50271,-9.64283 0.6032,-1.80349 0.98629,-2.21933 3.3843,-3.67369 2.40079,-1.45605 2.92221,-1.61553 4.64861,-1.42178 3.31519,0.37204 3.65765,-1.46165 0.65643,-3.51495 -0.74409,-0.50908 -2.10172,-1.6274 -3.01696,-2.48515 -2.46214,-2.30752 -4.75373,-3.71939 -6.0369,-3.71939 -2.26377,0 -9.08063,-5.15203 -12.30775,-9.30193 l -1.2486,-1.60563 -2.68385,0.41717 c -1.58449,0.24629 -4.04713,0.28163 -6.01198,0.0863 -1.83047,-0.18199 -4.82578,-0.17491 -6.65625,0.0158 -1.83047,0.19066 -5.48101,0.5717 -8.11231,0.84675 -2.6313,0.27506 -6.74253,0.95332 -9.13605,1.50726 -7.65756,1.77218 -12.28925,2.26882 -23.3494,2.50369 -11.56889,0.24567 -15.86086,-0.0668 -24.41762,-1.77799 -19.57094,-3.91372 -39.88627,-15.21987 -57.35468,-31.91977 -9.62179,-9.19849 -14.88953,-17.5053 -21.58332,-34.03515 -7.23964,-17.87781 -12.22627,-25.64047 -25.20565,-39.23753 -5.19966,-5.44711 -9.74868,-9.27711 -12.9387,-10.89362 -4.91826,-2.49227 -11.10296,-3.25089 -31.766617,-3.89651 -6.653146,-0.20787 -13.101904,-0.5113 -14.330574,-0.67429 -3.706149,-0.49164 -3.168644,-0.60933 17.898871,-3.91917 8.49356,-1.33439 18.14048,-1.88921 22.15723,-1.27431 14.88548,2.27871 32.4954,13.76318 40.87795,26.65892 5.03852,7.75128 9.8853,14.12991 23.67001,31.15107 8.74214,10.79466 10.63077,12.7941 16.67477,17.65305 10.7447,8.63799 24.02403,15.52155 35.56936,18.43797 5.35495,1.35269 10.70724,1.52458 34.1133,1.09553 l 19.34474,-0.3546 4.16016,-2.75264 c 6.11376,-4.04529 11.39255,-6.59301 14.48251,-6.98975 4.16621,-0.53493 4.93833,-0.94313 20.87885,-11.03823 34.73343,-21.99661 44.37908,-25.28418 74.25884,-25.30997 20.43049,-0.0176 39.76825,2.47457 55.66565,7.17409 3.00071,0.88706 5.55683,1.51184 5.68027,1.3884 0.60138,-0.60138 0.0267,-1.67385 -2.08073,-3.88331 -6.20288,-6.50307 -6.07169,-13.69193 0.38621,-21.1634 3.06302,-3.54377 4.00137,-5.50699 3.98989,-8.34766 -0.0116,-2.87176 -0.83647,-4.64215 -4.33878,-9.31219 -3.90232,-5.20343 -4.48243,-6.47558 -4.5446,-9.96617 -0.048,-2.69563 0.0233,-2.9477 0.96868,-3.42689 0.56127,-0.28448 1.31155,-0.9031 1.66729,-1.37471 0.57521,-0.76257 0.79268,-0.80239 1.96515,-0.35983 1.68212,0.63493 1.96302,1.29543 3.24633,7.6335 1.13991,5.62982 2.14543,8.3053 3.12137,8.3053 0.77104,0 1.19918,-2.26723 1.21768,-6.44824 0.0179,-4.04914 -0.4775,-6.08174 -2.48273,-10.18618 -0.90381,-1.84997 -1.64328,-3.88622 -1.64328,-4.52501 0,-1.26765 1.98348,-3.59351 3.06453,-3.59351 0.34783,0 0.93255,-0.42122 1.29935,-0.93604 0.61643,-0.86517 0.69853,-0.88092 1.08431,-0.20801 0.22956,0.40042 0.62734,0.72803 0.88397,0.72803 0.25662,0 0.79252,0.29497 1.1909,0.65549 0.64792,0.58637 0.70056,1.32119 0.49919,6.96827 -0.21612,6.06022 0.12964,10.24151 1.16918,14.13914 0.53701,2.01344 1.654,1.94443 2.15153,-0.13293 0.19142,-0.79926 0.70243,-2.85725 1.13556,-4.57332 0.43315,-1.71606 0.86931,-4.73299 0.96924,-6.70428 0.19984,-3.9418 0.88707,-5.89406 2.156,-6.12465 0.45588,-0.0828 1.25008,-0.53898 1.7649,-1.01364 0.59525,-0.54881 0.93604,-0.66772 0.93604,-0.32659 0,0.29504 0.68576,1.16457 1.52392,1.93229 2.07517,1.90078 2.01144,3.57025 -0.26576,6.96154 -0.9208,1.37129 -1.67418,2.72954 -1.67418,3.01834 0,0.28879 -0.65508,2.61442 -1.45572,5.16806 -1.40775,4.48993 -1.57977,6.88472 -0.47071,6.55273 0.78243,-0.23421 2.24871,-3.61818 3.37963,-7.79973 1.5164,-5.60684 2.59705,-7.63096 4.1029,-7.68499 0.83314,-0.0299 1.28773,0.21055 1.52208,0.80506 0.18378,0.46623 0.72565,1.17348 1.20416,1.57165 0.4785,0.39818 0.87001,1.02975 0.87001,1.40351 0,0.37375 -1.7012,2.45903 -3.78045,4.63396 -5.7346,5.9985 -7.25812,8.46076 -5.62326,9.08811 0.63428,0.2434 3.92402,-1.37363 8.15566,-4.0088 3.76674,-2.34566 4.49535,-2.47168 5.68615,-0.98349 1.14945,1.43652 1.24946,3.11352 0.24017,4.02694 -0.40146,0.36332 -2.97173,1.62047 -5.71171,2.79367 -6.4539,2.76342 -7.34199,3.32336 -10.82301,6.8239 l -2.91211,2.92845 0.10841,4.72266 c 0.13355,5.81763 -0.0449,6.25535 -1.99372,4.88973 -0.79355,-0.55609 -1.95976,-1.13588 -2.59156,-1.28843 -1.74172,-0.42054 -1.06107,0.78626 1.1863,2.1033 1.00865,0.59111 2.56204,2.04977 3.45196,3.24147 2.01475,2.69796 3.25225,3.83209 8.98007,8.22988 5.20173,3.99386 12.8439,11.47378 15.61148,15.28002 l 1.87208,2.57466 4.16016,-0.25153 c 8.48734,-0.51316 18.48616,1.29122 27.95568,5.04488 5.79885,2.29862 20.26863,9.61586 24.68468,12.48281 4.46597,2.89938 10.24789,8.85279 12.11272,12.47205 0.82525,1.60166 1.73408,3.66094 2.01959,4.57618 0.60963,1.95433 1.52661,3.12005 2.45445,3.1203 0.57627,1.5e-4 0.6638,0.78007 0.66534,5.92822 0,3.71601 0.19661,6.45984 0.52384,7.3532 0.46761,1.27645 0.43333,1.51964 -0.32865,2.33071 -0.76335,0.81259 -0.82325,1.2429 -0.58346,4.19107 0.29949,3.68193 -0.69042,12.09494 -1.69314,14.38952 -1.73263,3.9648 -3.43355,4.70458 -10.81687,4.70458 -5.65799,0 -5.91326,-0.0387 -8.94435,-1.35533 -10.92574,-4.74601 -32.0715,-21.25469 -36.74793,-28.68944 -1.63914,-2.60596 -4.09289,-3.22348 -11.50342,-2.89502 -6.06951,0.26902 -7.49478,0.5163 -7.49478,1.30032 0,0.34586 1.74939,0.65958 5.5586,0.99682 5.95377,0.52711 9.73835,1.41224 10.10315,2.36295 0.12418,0.32354 -0.0987,1.43791 -0.49535,2.47638 -0.88233,2.31039 -0.63446,5.19392 0.66891,7.78218 1.36999,2.7204 7.37971,11.6412 11.49506,17.0631 9.77334,12.87621 18.79777,21.10046 25.25895,23.01923 2.63688,0.78306 4.31812,0.77249 6.71787,-0.0422 2.62518,-0.89128 2.86676,-0.3988 0.35136,0.71634 -7.25976,3.21847 -16.14291,-0.18019 -29.28939,-11.20606 -7.82189,-6.56016 -23.29689,-22.47872 -23.29689,-23.96465 0,-1.39486 -1.68332,-4.34797 -4.82674,-8.46767 -1.5158,-1.98659 -2.84567,-3.84559 -2.95521,-4.13111 -0.45192,-1.17765 -1.85144,-0.87709 -6.80968,1.46245 -2.84302,1.34146 -6.52536,2.9509 -8.18297,3.57653 -1.78351,0.67314 -3.35747,1.57434 -3.85559,2.20759 -1.05501,1.34123 -2.05406,4.81634 -1.97241,6.86088 0.0537,1.3436 -0.17286,1.75481 -1.6748,3.04041 -1.84963,1.58322 -2.30108,2.7119 -2.79264,6.98198 -0.58099,5.04697 1.16508,8.49834 7.93504,15.6848 2.26941,2.40902 4.47487,5.15399 4.90104,6.09992 0.75577,1.67756 0.75577,1.74574 0,2.77063 -2.26401,3.07017 -3.72674,2.37899 -6.31868,-2.98577 -1.21198,-2.50854 -2.21869,-4.07526 -2.67248,-4.1591 -1.038,-0.19177 -0.94244,0.45904 0.93604,6.37475 1.81893,5.72818 2.01128,7.30625 0.9935,8.15093 -0.36881,0.30609 -0.79709,0.89856 -0.95173,1.31661 -0.24925,0.67377 -0.47519,0.58093 -1.98971,-0.81759 -2.16211,-1.99653 -2.71046,-3.91116 -2.83475,-9.898 -0.12017,-5.78811 -0.0949,-5.61621 -0.8256,-5.61621 -0.95827,0 -1.228,1.8117 -1.20782,8.11231 0.0167,5.1958 0.11811,6.01023 0.9403,7.54816 1.37647,2.57474 0.77787,4.28716 -1.70596,4.88024 -0.62345,0.14886 -1.39189,0.76375 -1.70766,1.36642 l -0.57413,1.09576 -0.26939,-1.07332 c -0.14816,-0.59033 -0.64293,-1.19188 -1.09948,-1.33679 -1.55783,-0.49443 -1.69457,-2.49829 -0.67567,-9.90168 0.85214,-6.19172 0.87281,-9.17756 0.0682,-9.84536 -1.15905,-0.96193 -2.31385,1.75872 -5.0267,11.84274 -1.11941,4.16096 -2.24526,6.87572 -3.39419,8.18439 -0.43968,0.50081 -1.00867,0.63158 -2.02809,0.46616 -0.79457,-0.12894 -1.66686,-0.0226 -1.98588,0.24222 -0.46078,0.38242 -0.69142,0.0416 -1.21338,-1.79326 -0.9769,-3.43402 -0.23724,-5.7311 3.207,-9.9597 2.06884,-2.53998 3.12501,-4.47749 4.1514,-7.61568 0.8822,-2.6973 0.75085,-6.10002 -0.24275,-6.28856 -0.98268,-0.18647 -3.11242,3.07938 -4.31623,6.61874 -1.68742,4.96121 -3.36412,7.02557 -5.70626,7.02557 -0.64286,0 -1.77185,0.25195 -2.50885,0.55989 l -1.34001,0.55989 -0.0963,-3.08502 c -0.0766,-2.45295 0.0846,-3.44132 0.78653,-4.82405 1.74728,-3.44177 5.60317,-7.52905 9.50483,-10.07521 3.88325,-2.53414 4.30262,-3.11031 4.49807,-6.17965 0.13739,-2.15773 -0.0318,-3.07658 -0.9723,-5.28065 -3.85354,-9.03071 -4.4364,-13.16981 -2.45543,-17.43695 0.58422,-1.25845 1.55463,-2.80414 2.15648,-3.43487 1.98858,-2.08404 1.17184,-2.20149 -9.14109,-1.31455 -13.67817,1.17636 -35.08348,1.09015 -45.62389,-0.18376 -16.91782,-2.04467 -31.01552,-5.21478 -43.10546,-9.69299 -7.41854,-2.74788 -8.22444,-2.90766 -12.18421,-2.4156 -4.96252,0.61667 -11.00309,1.89699 -19.74502,4.18505 -0.90482,0.23682 -1.56005,0.66367 -1.56005,1.0163 0,0.76745 0.60413,0.76437 3.158,-0.0161 4.61824,-1.41137 16.03718,-3.62593 19.80329,-3.84059 l 4.03258,-0.22986 4.40401,4.48479 c 5.59607,5.69873 9.02315,10.24172 11.29916,14.97834 3.84311,7.99794 4.00815,12.6517 0.55917,15.76764 -0.91136,0.82336 -1.90015,1.49702 -2.19732,1.49702 -0.29716,0 -3.05792,1.79963 -6.13503,3.99917 -9.67522,6.9159 -15.9456,10.14535 -19.69853,10.14535 -1.26334,0 -1.45782,0.14143 -1.57318,1.14404 -0.0724,0.62923 0.19397,3.01612 0.59193,5.30421 0.81533,4.68766 1.02376,14.59414 0.35351,16.80196 -1.33085,4.38388 -4.92946,3.71203 -5.84021,-1.09035 -0.22256,-1.17357 -0.30278,-3.0359 -0.17825,-4.1385 0.16186,-1.43327 0.0465,-2.24193 -0.40483,-2.83678 -0.60611,-0.79893 -0.66758,-0.75028 -1.545,1.22289 -0.6012,1.352 -1.01337,3.37179 -1.20494,5.90465 -0.36583,4.83697 -1.19867,6.09377 -4.38433,6.61623 -0.92474,0.15166 -1.96199,0.65115 -2.33465,1.12424 -0.65587,0.83262 -0.6766,0.81929 -0.94417,-0.60699 -0.15047,-0.80207 -0.63736,-1.78752 -1.08198,-2.1899 -0.74704,-0.67606 -0.7624,-0.84168 -0.20234,-2.18211 0.33334,-0.79778 1.2624,-2.34462 2.06459,-3.43741 1.45946,-1.98819 1.84013,-3.46254 1.0242,-3.96681 -0.79682,-0.49246 -2.41839,1.01305 -5.56157,5.16351 -3.68549,4.86657 -5.55254,6.51213 -8.32817,7.34022 -2.90813,0.86762 -3.22715,0.82359 -2.68317,-0.3703 z m 52.83627,-46.06256 c 1.95485,-0.98591 3.5913,-2.95466 3.92223,-4.7187 0.43977,-2.34417 -1.90899,-6.6021 -3.0258,-5.48529 -0.14523,0.14523 0.14366,0.98948 0.64197,1.8761 1.87776,3.34103 0.83758,5.67285 -3.35814,7.52816 -1.92158,0.8497 -2.27596,1.22835 -1.69416,1.81015 0.34053,0.34053 1.49147,0.01 3.5139,-1.01042 z M 543.5186,493.92652 c 2.20809,-1.06892 4.12705,-3.21613 5.44291,-6.09037 2.09019,-4.56558 0.8292,-12.41332 -2.53516,-15.7777 -1.92549,-1.92546 -3.89649,-2.64277 -7.27142,-2.64629 -2.78494,-0.003 -4.56378,0.82773 -6.67306,3.11601 -2.1798,2.3648 -3.22321,4.49462 -3.83887,7.83594 -0.62057,3.36808 -0.16591,5.2943 2.00782,8.50584 3.52457,5.2074 8.5096,7.16633 12.86778,5.05657 z m 6.97622,-3.83818 c 3.26726,-5.86359 4.48531,-12.69567 2.92871,-16.4277 -0.81818,-1.96171 -2.84593,-4.08614 -4.92018,-5.15482 -1.77814,-0.91612 -5.40779,-1.43577 -7.08621,-1.01451 -1.88988,0.47433 -1.16251,0.96856 1.73109,1.17628 7.44801,0.53463 10.9269,5.5802 9.16686,13.29499 -0.27806,1.21871 -1.47311,4.12637 -2.65567,6.46148 -1.3323,2.63082 -1.97076,4.31045 -1.67855,4.41603 0.73777,0.26656 0.9796,0.002 2.51395,-2.75175 z m 33.68917,1.89036 c -0.18858,-0.40041 -0.37225,-3.06026 -0.40815,-5.91077 -0.0418,-3.31267 -0.22881,-5.23723 -0.51836,-5.33375 -0.71879,-0.2396 -1.09453,1.89353 -1.04636,5.94032 0.0485,4.07756 0.57893,6.03223 1.63686,6.03223 0.49976,0 0.58841,-0.19204 0.33601,-0.72803 z m -285.49806,-4.71102 c 0.15511,-0.55506 0.30068,-2.52314 0.32349,-4.37352 l 0.0415,-3.36432 4.88818,-1.77737 c 25.94752,-9.43468 43.50944,-16.82313 54.39408,-22.88402 6.47703,-3.60661 14.76413,-6.21725 23.2969,-7.3391 5.5989,-0.73612 9.4115,-0.52805 12.13661,0.66233 0.95492,0.41713 1.84415,0.65048 1.97607,0.51855 0.65062,-0.65061 0.0546,-1.3519 -1.73621,-2.04285 -2.95889,-1.14164 -11.33768,-1.03744 -17.2842,0.21495 -8.59135,1.80941 -14.60565,4.15941 -24.6294,9.62357 -4.71946,2.57268 -14.7424,6.9702 -25.21437,11.06267 -5.88032,2.29804 -27.84513,10.5776 -28.06128,10.5776 -0.0606,0 -0.51491,-1.26364 -1.00948,-2.8081 -0.89928,-2.80825 -2.56359,-6.07668 -3.33802,-6.5553 -1.15267,-0.71239 -1.06903,0.50193 0.19464,2.82585 0.77322,1.42197 1.69735,3.58629 2.05362,4.80959 l 0.64776,2.22419 -1.24132,0.46855 c -1.47657,0.55734 -1.38409,1.35482 0.14468,1.2476 1.44376,-0.10125 1.68474,0.80356 1.31786,4.94809 -0.23899,2.69994 -0.18899,3.30553 0.26057,3.15568 0.30598,-0.10199 0.68323,-0.63958 0.83834,-1.19464 z m 215.15035,-9.12086 c 8.75876,-8.17974 11.07431,-16.83032 6.77574,-25.3132 -1.03571,-2.04385 -4.99573,-6.72067 -5.6906,-6.72067 -0.78411,0 -0.30398,0.96529 1.71877,3.45547 5.20565,6.40864 6.03893,12.51578 2.64661,19.39777 -1.21801,2.47106 -2.43078,4.02838 -5.64138,7.24417 -3.6272,3.63306 -4.44817,4.84793 -3.27605,4.84793 0.19212,0 1.75222,-1.31016 3.46691,-2.91147 z m -0.89772,-6.56178 c 2.6261,-3.71824 3.41691,-8.08028 2.27378,-12.5423 -0.82579,-3.22344 -2.23313,-5.70407 -2.87301,-5.06417 -0.30697,0.30696 -0.16748,1.0326 0.46565,2.42254 2.40582,5.28138 2.08087,9.84475 -1.02086,14.33635 -0.94327,1.36598 -1.04457,2.43286 -0.22856,2.40764 0.15813,-0.005 0.78049,-0.70691 1.383,-1.56006 z"
           id="path4834"
           inkscape:connector-curvature="0"
           transform="scale(0.26458333)" />
        <path
           style="opacity:1;fill:#f9f9f9;stroke-width:2.74570489;stroke-miterlimit:4;stroke-dasharray:none"
           d="m 586.83499,491.38325 c -0.51931,-1.34997 -0.76452,-7.64832 -0.40197,-10.32496 l 0.36627,-2.70411 0.78402,1.66407 c 0.57905,1.22903 0.77367,2.53411 0.74447,4.99219 -0.0419,3.52747 -1.00527,7.64012 -1.49279,6.37281 z"
           id="path4836"
           inkscape:connector-curvature="0"
           transform="scale(0.26458333)" />
      </g>
    </g>
  </g>
</svg>
